<?xml version="1.0" encoding="utf-8"?>
<!-- Generator: Adobe Illustrator 19.0.1, SVG Export Plug-In . SVG Version: 6.00 Build 0)  -->
<!DOCTYPE svg PUBLIC "-//W3C//DTD SVG 1.1//EN" "http://www.w3.org/Graphics/SVG/1.1/DTD/svg11.dtd">
<svg version="1.1" id="Layer_1" xmlns="http://www.w3.org/2000/svg" xmlns:xlink="http://www.w3.org/1999/xlink" x="0px" y="0px"
	 viewBox="0 0 50 50" enable-background="new 0 0 50 50" xml:space="preserve">
<rect fill="#E0E0CE" width="50" height="50"/>
<g transform="translate(32 224)">
	<path fill="#616161" d="M-14.7-178.6c-2.7-5.7-1.3-8.9,0.8-12c2.3-3.3,2.9-6.7,2.9-6.7s1.8,2.3,1.1,6c3.2-3.5,3.8-9.2,3.3-11.3
		c7.2,5,10.3,15.9,6.1,23.9c22-12.5,5.5-31.1,2.6-33.2c1,2.1,1.1,5.7-0.8,7.4c-3.3-12.4-11.4-15-11.4-15c1,6.4-3.5,13.4-7.8,18.7
		c-0.1-2.6-0.3-4.3-1.7-6.8c-0.3,4.6-3.9,8.4-4.8,13.1C-25.7-188.1-23.4-183.5-14.7-178.6L-14.7-178.6z"/>
</g>
</svg>
