<?xml version="1.0" encoding="utf-8"?>
<!-- Generator: Adobe Illustrator 19.0.1, SVG Export Plug-In . SVG Version: 6.00 Build 0)  -->
<!DOCTYPE svg PUBLIC "-//W3C//DTD SVG 1.1//EN" "http://www.w3.org/Graphics/SVG/1.1/DTD/svg11.dtd">
<svg version="1.1" id="Layer_1" xmlns="http://www.w3.org/2000/svg" xmlns:xlink="http://www.w3.org/1999/xlink" x="0px" y="0px"
	 viewBox="0 0 13.9 15.7" enable-background="new 0 0 13.9 15.7" xml:space="preserve">
<rect x="0" y="0" fill="#D1D1C3" width="13.9" height="15.7"/>
<g>
	<path fill="#58595B" d="M12.2,7.6L7.1,3.5C7,3.5,6.9,3.5,6.9,3.5c0,0-0.1,0-0.1,0c-0.1,0-0.2,0.2-0.2,0.3v3.4L2,3.5
		c-0.1,0-0.1-0.1-0.2-0.1c0,0-0.1,0-0.1,0c-0.1,0-0.2,0.2-0.2,0.3V12c0,0.1,0.1,0.2,0.2,0.3c0,0,0.1,0,0.1,0c0.1,0,0.1,0,0.2-0.1
		l4.6-3.7V12c0,0.1,0.1,0.2,0.2,0.3c0,0,0.1,0,0.1,0c0.1,0,0.1,0,0.2-0.1l5.2-4.1c0.1-0.1,0.1-0.1,0.1-0.2
		C12.3,7.8,12.3,7.7,12.2,7.6z"/>
</g>
</svg>
