<?xml version="1.0" encoding="utf-8"?>
<!-- Generator: Adobe Illustrator 19.0.1, SVG Export Plug-In . SVG Version: 6.00 Build 0)  -->
<!DOCTYPE svg PUBLIC "-//W3C//DTD SVG 1.1//EN" "http://www.w3.org/Graphics/SVG/1.1/DTD/svg11.dtd">
<svg version="1.1" id="Layer_1" xmlns="http://www.w3.org/2000/svg" xmlns:xlink="http://www.w3.org/1999/xlink" x="0px" y="0px"
	 viewBox="0 0 50 50" enable-background="new 0 0 50 50" xml:space="preserve">
<rect fill="#E0E0CE" width="50" height="50"/>
<g opacity="0.6">
	<path fill="#616161" d="M43.8,34.8l-6.6-2.7c-0.3-0.1-0.5-0.2-0.8-0.3c-0.3-0.1-0.6-0.1-0.9-0.1H15.1c-0.2,0-0.3,0-0.5,0
		c-0.2,0-0.3-0.1-0.5-0.1L7.8,29c-0.3-0.1-0.5-0.2-0.8-0.2c-0.8,0-1.5,0.5-1.9,1.2c-0.4,1,0,2.1,1.1,2.5l6.6,2.7
		c0.3,0.1,0.5,0.2,0.8,0.3c0.3,0.1,0.6,0.1,0.9,0.1h20.3c0.2,0,0.3,0,0.5,0c0.2,0,0.3,0.1,0.5,0.1l6.3,2.6c0.3,0.1,0.5,0.2,0.8,0.2
		c0.8,0,1.5-0.5,1.9-1.2c0.2-0.5,0.2-1,0-1.5C44.6,35.4,44.3,35,43.8,34.8z"/>
	<path fill="#616161" d="M43.8,26.1l-6.6-2.7c-0.3-0.1-0.5-0.2-0.8-0.3c-0.3-0.1-0.6-0.1-0.9-0.1H15.1c-0.2,0-0.3,0-0.5,0
		c-0.2,0-0.3-0.1-0.5-0.1l-6.3-2.6c-0.3-0.1-0.5-0.2-0.8-0.2c-0.8,0-1.5,0.5-1.9,1.2c-0.4,1,0,2.1,1.1,2.5l6.6,2.7
		c0.3,0.1,0.5,0.2,0.8,0.3c0.3,0.1,0.6,0.1,0.9,0.1h20.3c0.2,0,0.3,0,0.5,0c0.2,0,0.3,0.1,0.5,0.1l6.3,2.6c0.3,0.1,0.5,0.2,0.8,0.2
		c0.8,0,1.5-0.5,1.9-1.2c0.2-0.5,0.2-1,0-1.5C44.6,26.7,44.3,26.3,43.8,26.1z"/>
	<path fill="#616161" d="M6.2,15.2l6.6,2.7c0.3,0.1,0.5,0.2,0.8,0.3c0.3,0.1,0.6,0.1,0.9,0.1h20.3c0.2,0,0.3,0,0.5,0
		c0.2,0,0.3,0.1,0.5,0.1l6.3,2.6c0.3,0.1,0.5,0.2,0.8,0.2c0.8,0,1.5-0.5,1.9-1.2c0.2-0.5,0.2-1,0-1.5c-0.2-0.5-0.6-0.9-1.1-1.1
		l-6.6-2.7c-0.3-0.1-0.5-0.2-0.8-0.3c-0.3-0.1-0.6-0.1-0.9-0.1H15.1c-0.2,0-0.3,0-0.5,0c-0.2,0-0.3-0.1-0.5-0.1l-6.3-2.6
		c-0.3-0.1-0.5-0.2-0.8-0.2c-0.8,0-1.5,0.5-1.9,1.2C4.7,13.6,5.2,14.7,6.2,15.2z"/>
</g>
</svg>
