<?xml version="1.0" encoding="utf-8"?>
<!-- Generator: Adobe Illustrator 19.0.1, SVG Export Plug-In . SVG Version: 6.00 Build 0)  -->
<!DOCTYPE svg PUBLIC "-//W3C//DTD SVG 1.1//EN" "http://www.w3.org/Graphics/SVG/1.1/DTD/svg11.dtd">
<svg version="1.1" id="Layer_1" xmlns="http://www.w3.org/2000/svg" xmlns:xlink="http://www.w3.org/1999/xlink" x="0px" y="0px"
	 viewBox="0 0 8.4 13.6" enable-background="new 0 0 8.4 13.6" xml:space="preserve">
<g>
	<g>
		<g>
			<path fill="#58595B" d="M1.6,13.4c-0.7,0-1.3-0.6-1.3-1.3V1.6c0-0.7,0.6-1.3,1.3-1.3s1.3,0.6,1.3,1.3V12
				C2.9,12.8,2.3,13.4,1.6,13.4z"/>
			<path fill="#58595B" d="M1.6,0.5c0.6,0,1,0.5,1,1V12c0,0.6-0.5,1-1,1s-1-0.5-1-1V1.6C0.5,1,1,0.5,1.6,0.5 M1.6,0
				C0.7,0,0,0.7,0,1.6V12c0,0.9,0.7,1.6,1.6,1.6s1.6-0.7,1.6-1.6V1.6C3.1,0.7,2.4,0,1.6,0L1.6,0z"/>
		</g>
		<g>
			<path fill="#58595B" d="M6.8,13.4c-0.7,0-1.3-0.6-1.3-1.3V1.6c0-0.7,0.6-1.3,1.3-1.3s1.3,0.6,1.3,1.3V12
				C8.1,12.8,7.5,13.4,6.8,13.4z"/>
			<path fill="#58595B" d="M6.8,0.5c0.6,0,1,0.5,1,1V12c0,0.6-0.5,1-1,1s-1-0.5-1-1V1.6C5.8,1,6.2,0.5,6.8,0.5 M6.8,0
				C5.9,0,5.2,0.7,5.2,1.6V12c0,0.9,0.7,1.6,1.6,1.6s1.6-0.7,1.6-1.6V1.6C8.4,0.7,7.7,0,6.8,0L6.8,0z"/>
		</g>
		<g>
			<path fill="#58595B" d="M6.8,13.4c-0.7,0-1.3-0.6-1.3-1.3V1.6c0-0.7,0.6-1.3,1.3-1.3s1.3,0.6,1.3,1.3V12
				C8.1,12.8,7.5,13.4,6.8,13.4z"/>
			<path fill="#58595B" d="M6.8,0.5c0.6,0,1,0.5,1,1V12c0,0.6-0.5,1-1,1s-1-0.5-1-1V1.6C5.8,1,6.2,0.5,6.8,0.5 M6.8,0
				C5.9,0,5.2,0.7,5.2,1.6V12c0,0.9,0.7,1.6,1.6,1.6s1.6-0.7,1.6-1.6V1.6C8.4,0.7,7.7,0,6.8,0L6.8,0z"/>
		</g>
	</g>
</g>
</svg>
