<?xml version="1.0" encoding="utf-8"?>
<!-- Generator: Adobe Illustrator 19.0.1, SVG Export Plug-In . SVG Version: 6.00 Build 0)  -->
<!DOCTYPE svg PUBLIC "-//W3C//DTD SVG 1.1//EN" "http://www.w3.org/Graphics/SVG/1.1/DTD/svg11.dtd">
<svg version="1.1" id="Layer_1" xmlns="http://www.w3.org/2000/svg" xmlns:xlink="http://www.w3.org/1999/xlink" x="0px" y="0px"
	 viewBox="0 0 10.5 15.7" enable-background="new 0 0 10.5 15.7" xml:space="preserve">
<g>
	<g>
		<g opacity="0.7">
			<path fill="#58595B" d="M10.3,7.4L0.8,0.1C0.8,0,0.6,0,0.5,0C0.4,0,0.4,0,0.3,0.1C0.1,0.1,0,0.3,0,0.5v14.7
				c0,0.2,0.1,0.4,0.3,0.5c0.1,0,0.2,0.1,0.2,0.1c0.1,0,0.2,0,0.3-0.1l9.4-7.3c0.1-0.1,0.2-0.3,0.2-0.4C10.5,7.7,10.4,7.5,10.3,7.4z
				"/>
		</g>
		<path fill="#58595B" d="M10.3,7.4L0.8,0.1C0.8,0,0.6,0,0.5,0C0.4,0,0.4,0,0.3,0.1C0.1,0.1,0,0.3,0,0.5v14.7c0,0.2,0.1,0.4,0.3,0.5
			c0.1,0,0.2,0.1,0.2,0.1c0.1,0,0.2,0,0.3-0.1l9.4-7.3c0.1-0.1,0.2-0.3,0.2-0.4C10.5,7.7,10.4,7.5,10.3,7.4z"/>
	</g>
</g>
</svg>
