<?xml version="1.0" encoding="utf-8"?>
<!-- Generator: Adobe Illustrator 19.0.1, SVG Export Plug-In . SVG Version: 6.00 Build 0)  -->
<!DOCTYPE svg PUBLIC "-//W3C//DTD SVG 1.1//EN" "http://www.w3.org/Graphics/SVG/1.1/DTD/svg11.dtd">
<svg version="1.1" id="Layer_1" xmlns="http://www.w3.org/2000/svg" xmlns:xlink="http://www.w3.org/1999/xlink" x="0px" y="0px"
	 viewBox="0 0 13.9 15.7" enable-background="new 0 0 13.9 15.7" xml:space="preserve">
<rect x="0" y="0" fill="#D1D1C3" width="13.9" height="15.7"/>
<g>
	<g>
		<path fill="#58595B" d="M1.2,7.6l5.2-4.1c0.1,0,0.1-0.1,0.2-0.1c0,0,0.1,0,0.1,0c0.1,0,0.2,0.2,0.2,0.3v3.4l4.6-3.7
			c0.1,0,0.1-0.1,0.2-0.1c0,0,0.1,0,0.1,0c0.1,0,0.2,0.2,0.2,0.3V12c0,0.1-0.1,0.2-0.2,0.3c0,0-0.1,0-0.1,0c-0.1,0-0.1,0-0.2-0.1
			L6.8,8.5V12c0,0.1-0.1,0.2-0.2,0.3c0,0-0.1,0-0.1,0c-0.1,0-0.1,0-0.2-0.1L1.2,8.1C1.1,8,1.1,7.9,1.1,7.9C1.1,7.8,1.1,7.7,1.2,7.6z
			"/>
	</g>
</g>
</svg>
