<?xml version="1.0" encoding="utf-8"?>
<!-- Generator: Adobe Illustrator 19.0.1, SVG Export Plug-In . SVG Version: 6.00 Build 0)  -->
<!DOCTYPE svg PUBLIC "-//W3C//DTD SVG 1.1//EN" "http://www.w3.org/Graphics/SVG/1.1/DTD/svg11.dtd">
<svg version="1.1" id="Layer_1" xmlns="http://www.w3.org/2000/svg" xmlns:xlink="http://www.w3.org/1999/xlink" x="0px" y="0px"
	 viewBox="0 0 50 50" enable-background="new 0 0 50 50" xml:space="preserve">
<rect x="0" y="0" fill="#E0E0CE" width="50" height="50"/>
<g>
	<path fill="#616161" stroke="#616161" stroke-miterlimit="10" d="M35.8,16.5c-0.4,0-0.8,0-1.2,0.1c-2.1-3.6-6.1-6.1-10.6-6.1
		c-5.8,0-10.7,4.1-11.9,9.5c-4,0.2-7.2,3.4-7.2,7.5c0,3.9,2.9,7,6.7,7.4c-0.1-0.4-0.2-0.8-0.2-1.2c0-0.5,0.1-0.9,0.2-1.3
		c-2.4-0.4-4.2-2.4-4.2-4.9c0-2.7,2.1-4.9,4.8-5l1.9-0.1l0.4-1.9c1-4.4,5-7.6,9.5-7.6c3.5,0,6.7,1.9,8.4,4.8l0.8,1.4l1.6-0.2
		c0.3,0,0.6-0.1,0.9-0.1c3.7,0,6.8,3,6.8,6.8c0,3.5-2.6,6.3-6,6.7c0.2,0.4,0.2,0.8,0.2,1.3c0,0.4-0.1,0.8-0.2,1.2
		c4.7-0.4,8.4-4.4,8.4-9.2C45.1,20.6,41,16.5,35.8,16.5z"/>
	<circle fill="#616161" stroke="#616161" stroke-miterlimit="10" cx="15.1" cy="33.8" r="1.2"/>
	<circle fill="#616161" stroke="#616161" stroke-miterlimit="10" cx="19.6" cy="33.8" r="1.2"/>
	<circle fill="#616161" stroke="#616161" stroke-miterlimit="10" cx="24.1" cy="33.8" r="1.2"/>
	<circle fill="#616161" stroke="#616161" stroke-miterlimit="10" cx="28.6" cy="33.8" r="1.2"/>
	<circle fill="#616161" stroke="#616161" stroke-miterlimit="10" cx="33.1" cy="33.8" r="1.2"/>
	<circle fill="#616161" stroke="#616161" stroke-miterlimit="10" cx="17.4" cy="38.2" r="1.2"/>
	<circle fill="#616161" stroke="#616161" stroke-miterlimit="10" cx="21.9" cy="38.2" r="1.2"/>
	<circle fill="#616161" stroke="#616161" stroke-miterlimit="10" cx="26.4" cy="38.2" r="1.2"/>
	<circle fill="#616161" stroke="#616161" stroke-miterlimit="10" cx="30.9" cy="38.2" r="1.2"/>
</g>
</svg>
