<?xml version="1.0" encoding="utf-8"?>
<!-- Generator: Adobe Illustrator 19.0.1, SVG Export Plug-In . SVG Version: 6.00 Build 0)  -->
<!DOCTYPE svg PUBLIC "-//W3C//DTD SVG 1.1//EN" "http://www.w3.org/Graphics/SVG/1.1/DTD/svg11.dtd">
<svg version="1.1" id="Layer_1" xmlns="http://www.w3.org/2000/svg" xmlns:xlink="http://www.w3.org/1999/xlink" x="0px" y="0px"
	 viewBox="0 0 13.9 15.7" enable-background="new 0 0 13.9 15.7" xml:space="preserve">
<rect fill="#D1D1C3" width="13.9" height="15.7"/>
<g>
	<g>
		<path fill="#616161" d="M8.9,12.3c-0.3,0-0.6-0.3-0.6-0.6c0-0.3,0.3-0.6,0.6-0.6c1.9,0,3.4-1.5,3.4-3.4s-1.5-3.4-3.4-3.4
			c-0.3,0-0.6-0.3-0.6-0.6s0.3-0.6,0.6-0.6c2.5,0,4.5,2,4.5,4.5S11.4,12.3,8.9,12.3z"/>
	</g>
	<polygon fill="#616161" points="0.5,5.6 3.8,5.6 6.6,3.1 6.6,12.6 3.8,10.1 0.5,10.1 	"/>
	<circle fill="#616161" cx="8.9" cy="7.9" r="1.1"/>
</g>
</svg>
