<?xml version="1.0" encoding="utf-8"?>
<!-- Generator: Adobe Illustrator 19.0.1, SVG Export Plug-In . SVG Version: 6.00 Build 0)  -->
<!DOCTYPE svg PUBLIC "-//W3C//DTD SVG 1.1//EN" "http://www.w3.org/Graphics/SVG/1.1/DTD/svg11.dtd">
<svg version="1.1" id="Layer_1" xmlns="http://www.w3.org/2000/svg" xmlns:xlink="http://www.w3.org/1999/xlink" x="0px" y="0px"
	 viewBox="0 0 13.9 15.7" enable-background="new 0 0 13.9 15.7" xml:space="preserve">
<rect fill="#D1D1C3" width="13.9" height="15.7"/>
<polygon fill="#616161" points="0.5,5.6 3.8,5.6 6.6,3.1 6.6,12.6 3.8,10.1 0.5,10.1 "/>
<path fill="#616161" d="M11.1,7.9l1.1-1.1c0.2-0.2,0.2-0.5,0-0.7c-0.2-0.2-0.5-0.2-0.7,0l-1.1,1.1L9.3,6C9.1,5.8,8.8,5.8,8.6,6
	c-0.2,0.2-0.2,0.5,0,0.7l1.1,1.1L8.6,8.9c-0.2,0.2-0.2,0.5,0,0.7c0.1,0.1,0.2,0.2,0.4,0.2c0.1,0,0.3-0.1,0.4-0.2l1.1-1.1l1.1,1.1
	c0.1,0.1,0.2,0.2,0.4,0.2c0.1,0,0.3-0.1,0.4-0.2c0.2-0.2,0.2-0.5,0-0.7L11.1,7.9z"/>
</svg>
