<?xml version="1.0" encoding="utf-8"?>
<!-- Generator: Adobe Illustrator 19.0.1, SVG Export Plug-In . SVG Version: 6.00 Build 0)  -->
<!DOCTYPE svg PUBLIC "-//W3C//DTD SVG 1.1//EN" "http://www.w3.org/Graphics/SVG/1.1/DTD/svg11.dtd">
<svg version="1.1" id="Layer_1" xmlns="http://www.w3.org/2000/svg" xmlns:xlink="http://www.w3.org/1999/xlink" x="0px" y="0px"
	 viewBox="0 0 12.9 9.5" enable-background="new 0 0 12.9 9.5" xml:space="preserve">
<g>
	<g>
		<path fill="#616161" d="M8.4,9.2C8.1,9.2,7.8,9,7.8,8.7c0-0.3,0.3-0.6,0.6-0.6c1.9,0,3.4-1.5,3.4-3.4s-1.5-3.4-3.4-3.4
			c-0.3,0-0.6-0.3-0.6-0.6s0.3-0.6,0.6-0.6c2.5,0,4.5,2,4.5,4.5S10.9,9.2,8.4,9.2z"/>
	</g>
	<polygon fill="#616161" points="0,2.5 3.4,2.5 6.2,0 6.2,9.5 3.4,7 0,7 	"/>
	<circle fill="#616161" cx="8.4" cy="4.8" r="1.1"/>
</g>
</svg>
