<?xml version="1.0" encoding="utf-8"?>
<!-- Generator: Adobe Illustrator 19.0.1, SVG Export Plug-In . SVG Version: 6.00 Build 0)  -->
<!DOCTYPE svg PUBLIC "-//W3C//DTD SVG 1.1//EN" "http://www.w3.org/Graphics/SVG/1.1/DTD/svg11.dtd">
<svg version="1.1" id="Layer_1" xmlns="http://www.w3.org/2000/svg" xmlns:xlink="http://www.w3.org/1999/xlink" x="0px" y="0px"
	 viewBox="0 0 50 50" enable-background="new 0 0 50 50" xml:space="preserve">
<rect fill="#E0E0CE" width="50" height="50"/>
<g opacity="0.6">
	<path fill="#616161" d="M32.3,8.6c-4,0-7.3,3.3-7.3,7.3h3.7c0-2,1.6-3.7,3.7-3.7c2,0,3.7,1.6,3.7,3.7c0,2-1.6,3.7-3.7,3.7
		c0,0-0.1,0-0.1,0v0H26H10.4v3.7h21.9c4,0,7.3-3.3,7.3-7.3C39.6,11.8,36.3,8.6,32.3,8.6z"/>
	<path fill="#616161" d="M27.7,26.8H10.4v3.7h11h6.2v0c0,0,0.1,0,0.1,0c2,0,3.7,1.6,3.7,3.7c0,2-1.6,3.7-3.7,3.7
		c-2,0-3.7-1.6-3.7-3.7h-3.7c0,4,3.3,7.3,7.3,7.3s7.3-3.3,7.3-7.3C35,30.1,31.8,26.8,27.7,26.8z"/>
</g>
</svg>
