<?xml version="1.0" encoding="utf-8"?>
<!-- Generator: Adobe Illustrator 19.0.1, SVG Export Plug-In . SVG Version: 6.00 Build 0)  -->
<!DOCTYPE svg PUBLIC "-//W3C//DTD SVG 1.1//EN" "http://www.w3.org/Graphics/SVG/1.1/DTD/svg11.dtd">
<svg version="1.1" id="Layer_1" xmlns="http://www.w3.org/2000/svg" xmlns:xlink="http://www.w3.org/1999/xlink" x="0px" y="0px"
	 viewBox="0 0 331.3 295.2" enable-background="new 0 0 331.3 295.2" xml:space="preserve">
<g>
	<polygon fill="#698D9E" points="0.6,186 2.3,133.7 103.8,185.6 	"/>
	<polygon fill="#456676" points="57.9,62.5 78.4,117.4 163.5,78.6 	"/>
	<g>
		<polygon fill="#65A0B7" points="2.3,133.7 57.9,62.5 103.8,185.6 		"/>
		<polygon fill="#65A0B7" points="103.8,185.6 173.8,192.9 163.5,78.6 		"/>
		<polygon fill="#698D9E" points="78.4,117.4 103.8,185.6 163.5,78.6 		"/>
		<polygon fill="#698D9E" points="57.9,62.5 159.7,11.6 163.5,78.6 		"/>
		<polygon fill="#456676" points="284.1,3.4 173.8,192.9 163.5,78.6 		"/>
		<polygon fill="#698D9E" points="173.8,192.9 128.9,269.6 103.8,185.6 		"/>
		<polygon fill="#456676" points="128.9,269.6 100.2,295.2 103.8,185.6 		"/>
		<polygon fill="#456676" points="0.6,186 15.6,246.4 103.8,185.6 		"/>
		<polygon fill="#65A0B7" points="100.2,295.2 103.8,185.6 55.3,219 		"/>
		<polygon fill="#698D9E" points="100.2,295.2 58.7,271.3 40.4,260.7 15.6,246.4 55.3,219 		"/>
		<polygon fill="#65A0B7" points="2.3,133.7 6.3,120.7 24.1,98.2 26,95.4 34.7,80.6 54,69.2 		"/>
		<polygon fill="#698D9E" points="89.3,46.8 113.3,26.2 127.9,17.6 154.1,13.6 160.5,11.6 		"/>
		<polygon fill="#65A0B7" points="159.7,11.6 284.1,3.4 163.5,78.6 		"/>
		<polygon fill="#65A0B7" points="183.7,7.7 217.4,5.2 238.5,0 277.8,1.6 285.3,3.8 283.1,7.6 185.2,10.7 		"/>
		<polygon fill="#65A0B7" points="173.8,192.9 236.3,85.5 331.3,150.7 		"/>
		<polygon fill="#698D9E" points="284.1,3.4 296.9,127.3 236.3,85.5 		"/>
		<polygon fill="#456676" points="0.8,186.5 0,194.6 0.3,202.1 1.9,212.1 3.3,215.8 8,223.2 8.3,228.1 11.3,234.5 12.5,242.5 
			13.7,245.3 21.6,229.4 21.6,201.2 		"/>
		<polygon fill="#698D9E" points="14.7,245.6 19,255.6 27.5,265.3 36.4,273.1 46.4,282.2 65,289.1 74.8,289.9 81.3,293.3 
			93.1,294.8 100,294.8 57.9,260 		"/>
	</g>
</g>
</svg>
