<?xml version="1.0" encoding="utf-8"?>
<!-- Generator: Adobe Illustrator 19.0.1, SVG Export Plug-In . SVG Version: 6.00 Build 0)  -->
<!DOCTYPE svg PUBLIC "-//W3C//DTD SVG 1.1//EN" "http://www.w3.org/Graphics/SVG/1.1/DTD/svg11.dtd">
<svg version="1.1" id="Layer_1" xmlns="http://www.w3.org/2000/svg" xmlns:xlink="http://www.w3.org/1999/xlink" x="0px" y="0px"
	 viewBox="0 0 510 466" enable-background="new 0 0 510 466" xml:space="preserve">
<g>
	<g>
		<path fill="#58595B" d="M12.4,112.3l-1.8-0.9c3.9-8.2,12.3-23,19.1-25.8l0.8,1.9C24.2,90.1,15.9,104.8,12.4,112.3z"/>
		<g>
			<circle fill="#58595B" cx="29.9" cy="86.6" r="3.8"/>
		</g>
		<g>
			<circle fill="#58595B" cx="11.5" cy="111.7" r="3.8"/>
		</g>
	</g>
	<g>
		<path fill="#58595B" d="M5.5,153c-0.1-1.2-0.1-2.3-0.2-3.5c-0.5-8.7-1-17.8,1.7-26.2l1.9,0.6c-2.5,8.1-2,17-1.6,25.5
			c0.1,1.2,0.1,2.3,0.2,3.5L5.5,153z"/>
		<g>
			<circle fill="#58595B" cx="7.9" cy="123.8" r="3.8"/>
		</g>
		<g>
			<circle fill="#58595B" cx="6.4" cy="152.8" r="3.8"/>
		</g>
	</g>
	<g>
		<path fill="#58595B" d="M7.1,163c-2.7-2.5-3.9-6.5-3.3-10.8l2,0.3c-0.5,3.6,0.5,7,2.7,9L7.1,163z"/>
		<g>
			<circle fill="#58595B" cx="4.8" cy="152.6" r="3.8"/>
		</g>
		<g>
			<circle fill="#58595B" cx="7.6" cy="162.1" r="3.8"/>
		</g>
	</g>
	<g>
		<path fill="#58595B" d="M7.7,190.6c-4-6.5-5.8-18.4-2.2-23.9l1.7,1.1c-3.2,4.8-1.4,15.8,2.2,21.7L7.7,190.6z"/>
		<g>
			<circle fill="#58595B" cx="6.3" cy="167.4" r="3.8"/>
		</g>
		<g>
			<circle fill="#58595B" cx="8.5" cy="189.9" r="3.8"/>
		</g>
	</g>
	<g>
		<path fill="#58595B" d="M10.6,200.8c-2.4-2.1-4-4.7-4.7-7.5l2-0.5c0.6,2.4,2,4.6,4,6.5L10.6,200.8z"/>
		<g>
			<circle fill="#58595B" cx="7" cy="193.3" r="3.8"/>
		</g>
		<g>
			<circle fill="#58595B" cx="11.2" cy="199.9" r="3.8"/>
		</g>
	</g>
	<g>
		<path fill="#58595B" d="M23.3,223c-6.1-4.7-11.3-12.6-9.1-19.6l1.9,0.6c-1.9,6.1,3.1,13.3,8.4,17.4L23.3,223z"/>
		<g>
			<circle fill="#58595B" cx="15.1" cy="203.9" r="3.8"/>
		</g>
		<g>
			<circle fill="#58595B" cx="23.8" cy="222" r="3.8"/>
		</g>
	</g>
	<g>
		<path fill="#58595B" d="M36.9,245.6c-4.7-3.7-8.8-8-12.2-12.5c-3.5-4.7-6.2-9.6-7.9-14.4l1.9-0.6c3.1,9.2,10.2,18.7,19.5,26
			L36.9,245.6z"/>
		<g>
			<circle fill="#58595B" cx="17.8" cy="218.5" r="3.8"/>
		</g>
		<g>
			<circle fill="#58595B" cx="37.4" cy="244.6" r="3.8"/>
		</g>
	</g>
	<g>
		<path fill="#58595B" d="M71.4,258.8c-9-0.5-18.3-1.8-25.8-8.5l1.3-1.5c6.6,6,14.6,7.5,24.5,8L71.4,258.8z"/>
		<g>
			<circle fill="#58595B" cx="46.5" cy="249.6" r="3.8"/>
		</g>
		<g>
			<circle fill="#58595B" cx="71.3" cy="257.7" r="3.8"/>
		</g>
	</g>
	<g>
		<path fill="#58595B" d="M86.6,263c-3,0-6-0.4-8.8-1.5l0.8-1.9c5.1,2.1,11.8,1.3,16.4,0.5l0.3,2C92.9,262.6,89.8,263,86.6,263z"/>
		<g>
			<circle fill="#58595B" cx="78.4" cy="260.6" r="3.8"/>
		</g>
		<g>
			<circle fill="#58595B" cx="95" cy="261.1" r="3.8"/>
		</g>
	</g>
	<g>
		<g>
			<circle fill="#58595B" cx="96.5" cy="258" r="3.8"/>
		</g>
		<g>
			<circle fill="#58595B" cx="93.3" cy="258.7" r="3.8"/>
		</g>
	</g>
	<g>
		<path fill="#58595B" d="M111.2,287c-8.2-6.9-15.8-20-14.4-29.9l2,0.3c-1.3,9.2,6,21.5,13.8,28.1L111.2,287z"/>
		<g>
			<circle fill="#58595B" cx="97.8" cy="257.4" r="3.8"/>
		</g>
		<g>
			<circle fill="#58595B" cx="111.8" cy="286.1" r="3.8"/>
		</g>
	</g>
	<g>
		<path fill="#58595B" d="M137.2,309.6c-12.2-3.2-28.9-9-32.7-22.2l-0.1,0c0-0.2,0-0.4,0-0.6l0.5-5.5l1.4,5.3
			c3.4,12.4,19.5,17.9,31.3,21L137.2,309.6z"/>
		<g>
			<circle fill="#58595B" cx="105.4" cy="287.2" r="3.8"/>
		</g>
		<g>
			<circle fill="#58595B" cx="137.3" cy="308.5" r="3.8"/>
		</g>
	</g>
	<g>
		<path fill="#58595B" d="M179.5,318.5c-1.1-0.1-2.2-0.3-3.4-0.4c-9.9-1.1-20.2-2.3-29.8-6.2l0.8-1.9c9.3,3.8,19.4,5,29.2,6.1
			c1.1,0.1,2.2,0.3,3.4,0.4L179.5,318.5z"/>
		<g>
			<circle fill="#58595B" cx="147" cy="311" r="3.8"/>
		</g>
		<g>
			<circle fill="#58595B" cx="179.5" cy="317.5" r="3.8"/>
		</g>
	</g>
	<g>
		<path fill="#58595B" d="M170.8,321.5l0-2c13.8-0.1,27.9-4.3,41.4-8.4c1.8-0.5,3.6-1.1,5.3-1.6l0.6,1.9c-1.8,0.5-3.5,1-5.3,1.6
			C199.1,317.1,184.9,321.4,170.8,321.5z"/>
		<g>
			<circle fill="#58595B" cx="171" cy="320.5" r="3.8"/>
		</g>
		<g>
			<circle fill="#58595B" cx="217.6" cy="310.6" r="3.8"/>
		</g>
	</g>
	<g>
		<path fill="#58595B" d="M208.7,318.2l-0.6-1.9c5.3-1.5,16-3.1,23-4.2c1.2-0.2,2.3-0.3,3.2-0.5l0.3,2c-1,0.1-2.1,0.3-3.2,0.5
			C224.5,315.1,213.9,316.7,208.7,318.2z"/>
		<g>
			<circle fill="#58595B" cx="208.7" cy="317.2" r="3.8"/>
		</g>
		<g>
			<circle fill="#58595B" cx="234.4" cy="312.6" r="3.8"/>
		</g>
	</g>
	<g>
		<path fill="#58595B" d="M254.5,310.4l-0.5-2c8.8-2.1,18.2-2.5,27.2-2.8c2.4-0.1,4.9-0.2,7.3-0.3l0.1,2c-2.4,0.1-4.9,0.2-7.3,0.3
			C272.4,308,263.2,308.3,254.5,310.4z"/>
		<g>
			<circle fill="#58595B" cx="254.5" cy="309.4" r="3.8"/>
		</g>
		<g>
			<circle fill="#58595B" cx="288.4" cy="306.3" r="3.8"/>
		</g>
	</g>
	<g>
		<path fill="#58595B" d="M225.8,310.2l-0.6-1.9c8.7-2.6,17.9-3.5,26.9-4.3c2.8-0.3,5.7-0.5,8.6-0.9l0.2,2c-2.9,0.3-5.8,0.6-8.6,0.9
			C243.4,306.7,234.3,307.6,225.8,310.2z"/>
		<g>
			<circle fill="#58595B" cx="225.7" cy="309.2" r="3.8"/>
		</g>
		<g>
			<circle fill="#58595B" cx="260.6" cy="304" r="3.8"/>
		</g>
	</g>
	<g>
		<path fill="#58595B" d="M331.6,310.1c-2-0.3-4.2-0.6-6.4-0.9c-10.3-1.5-22-3.2-31-0.8l-0.5-1.9c9.4-2.6,21.3-0.8,31.8,0.7
			c2.2,0.3,4.3,0.6,6.4,0.9L331.6,310.1z"/>
		<g>
			<circle fill="#58595B" cx="294.1" cy="307.4" r="3.8"/>
		</g>
		<g>
			<circle fill="#58595B" cx="331.6" cy="309" r="3.8"/>
		</g>
	</g>
	<g>
		<path fill="#58595B" d="M381.5,315.8c-4.5-0.7-9.1-1.3-13.6-1.9c-13.2-1.8-26.8-3.6-39.4-7.3l0.6-1.9c12.4,3.6,26,5.5,39.1,7.2
			c4.5,0.6,9.2,1.2,13.7,1.9L381.5,315.8z"/>
		<g>
			<circle fill="#58595B" cx="328.9" cy="305.6" r="3.8"/>
		</g>
		<g>
			<circle fill="#58595B" cx="381.4" cy="314.8" r="3.8"/>
		</g>
	</g>
	<g>
		<path fill="#58595B" d="M422,326.3c-3.9-1.1-8-2.1-11.9-3c-6.7-1.6-13.7-3.3-20.3-5.7l0.7-1.9c6.4,2.4,13.3,4,20,5.6
			c3.9,0.9,8,1.9,12,3L422,326.3z"/>
		<g>
			<circle fill="#58595B" cx="390.4" cy="316.8" r="3.8"/>
		</g>
		<g>
			<circle fill="#58595B" cx="422.1" cy="325.4" r="3.8"/>
		</g>
	</g>
	<g>
		<path fill="#58595B" d="M452.5,329.4c-1.6-0.2-3.3-0.4-4.9-0.5c-5.1-0.5-10.4-1.1-15.4-2.7l0.6-1.9c4.8,1.6,9.8,2.1,15,2.6
			c1.6,0.2,3.3,0.3,5,0.5L452.5,329.4z"/>
		<g>
			<circle fill="#58595B" cx="432.6" cy="325.2" r="3.8"/>
		</g>
		<g>
			<circle fill="#58595B" cx="452.4" cy="328.4" r="3.8"/>
		</g>
	</g>
	<g>
		<path fill="#58595B" d="M452.9,331.3l-1-1.8c4.4-2.5,9.4-4.4,14.2-6.3c2.5-1,5-2,7.4-3l0.8,1.9c-2.4,1.1-5,2.1-7.5,3
			C462.1,326.9,457.2,328.8,452.9,331.3z"/>
		<g>
			<circle fill="#58595B" cx="452.6" cy="330.3" r="3.8"/>
		</g>
		<g>
			<circle fill="#58595B" cx="473.8" cy="321.1" r="3.8"/>
		</g>
	</g>
	<g>
		<path fill="#58595B" d="M479.1,315.7l-1.3-1.6c5.2-4.1,10.3-9.2,15-15.1l1.6,1.3C489.6,306.3,484.4,311.5,479.1,315.7z"/>
		<g>
			<circle fill="#58595B" cx="478.6" cy="314.7" r="3.8"/>
		</g>
		<g>
			<circle fill="#58595B" cx="493.5" cy="299.8" r="3.8"/>
		</g>
	</g>
	<g>
		<path fill="#58595B" d="M497.8,286.9l-1.9-0.6c0.7-2.5,1.5-4.9,2.2-7.4c2.3-7.3,4.6-14.9,6.2-22.7l2,0.4c-1.6,7.9-4,15.5-6.2,22.9
			C499.3,282,498.6,284.4,497.8,286.9z"/>
		<g>
			<circle fill="#58595B" cx="497" cy="286.4" r="3.8"/>
		</g>
		<g>
			<circle fill="#58595B" cx="505.2" cy="256.6" r="3.8"/>
		</g>
	</g>
	<g>
		<path fill="#58595B" d="M500.5,240l-2-0.1c0.7-11.5,0.1-21-5.3-32.4l1.8-0.9C500.6,218.5,501.2,228.2,500.5,240z"/>
		<g>
			<circle fill="#58595B" cx="494.1" cy="207.3" r="3.8"/>
		</g>
		<g>
			<circle fill="#58595B" cx="499.5" cy="239.8" r="3.8"/>
		</g>
	</g>
	<g>
		<path fill="#58595B" d="M489.8,204.8c-1.8-7.1-6.5-26.1-13.9-31l1.1-1.7c7.2,4.8,11.9,20.7,14.8,32.2L489.8,204.8z"/>
		<g>
			<circle fill="#58595B" cx="476.6" cy="173.1" r="3.8"/>
		</g>
		<g>
			<circle fill="#58595B" cx="490.7" cy="204.4" r="3.8"/>
		</g>
	</g>
	<g>
		<path fill="#58595B" d="M500.8,260.4l-2-0.2c0.5-4.3,0.5-9.1-0.1-14.6l2-0.2C501.4,251,501.4,255.9,500.8,260.4z"/>
		<g>
			<circle fill="#58595B" cx="499.7" cy="245.6" r="3.8"/>
		</g>
		<g>
			<circle fill="#58595B" cx="499.8" cy="260.1" r="3.8"/>
		</g>
	</g>
	<g>
		<path fill="#58595B" d="M478.4,168c-1.8-3.8-4.4-7.8-6.9-11.6c-3.5-5.3-7.1-10.9-8.8-16.3l1.9-0.6c1.6,5.2,5.1,10.6,8.5,15.8
			c2.5,3.9,5.2,7.9,7,11.8L478.4,168z"/>
		<g>
			<circle fill="#58595B" cx="463.8" cy="140" r="3.8"/>
		</g>
		<g>
			<circle fill="#58595B" cx="479.2" cy="167.4" r="3.8"/>
		</g>
	</g>
	<g>
		<path fill="#58595B" d="M492.1,198c-3-4.7-5.3-10-7.6-15c-1.9-4.3-3.9-8.7-6.2-12.7l1.7-1c2.4,4.1,4.4,8.6,6.3,12.9
			c2.2,5,4.6,10.2,7.5,14.8L492.1,198z"/>
		<g>
			<circle fill="#58595B" cx="492.9" cy="197.3" r="3.8"/>
		</g>
		<g>
			<circle fill="#58595B" cx="479.2" cy="169.9" r="3.8"/>
		</g>
	</g>
	<g>
		<path fill="#58595B" d="M453.6,120.9c-6-11.1-12.8-22.5-24.3-29.6l1-1.7c11.9,7.3,18.9,19,25,30.3L453.6,120.9z"/>
		<g>
			<circle fill="#58595B" cx="430" cy="90.6" r="3.8"/>
		</g>
		<g>
			<circle fill="#58595B" cx="454.3" cy="120.3" r="3.8"/>
		</g>
	</g>
	<g>
		<path fill="#58595B" d="M460.1,133.8c-1.2-1.9-2.4-3.9-3.6-5.9c-2.9-5-6-10.1-9.7-14.5l1.5-1.3c3.8,4.5,6.9,9.7,9.9,14.8
			c1.1,1.9,2.3,3.9,3.5,5.8L460.1,133.8z"/>
		<g>
			<circle fill="#58595B" cx="460.9" cy="133.1" r="3.8"/>
		</g>
		<g>
			<circle fill="#58595B" cx="447.7" cy="112.9" r="3.8"/>
		</g>
	</g>
	<g>
		<path fill="#58595B" d="M424.6,80.7c-2.5-3.3-6.2-7-9.4-10.3c-1.5-1.5-2.9-2.9-4-4.1l1.5-1.4c1.1,1.2,2.5,2.6,3.9,4.1
			c3.3,3.3,7,7.1,9.6,10.5L424.6,80.7z"/>
		<g>
			<circle fill="#58595B" cx="412.1" cy="65.7" r="3.8"/>
		</g>
		<g>
			<circle fill="#58595B" cx="425.3" cy="79.9" r="3.8"/>
		</g>
	</g>
	<g>
		<path fill="#58595B" d="M411.8,68.1c-4.9-5.7-11.9-9.5-18-12.9l1-1.8c6.3,3.4,13.5,7.4,18.6,13.4L411.8,68.1z"/>
		<g>
			<circle fill="#58595B" cx="412.5" cy="67.3" r="3.8"/>
		</g>
		<g>
			<circle fill="#58595B" cx="394.4" cy="54.4" r="3.8"/>
		</g>
	</g>
	<g>
		<path fill="#58595B" d="M28.3,91.5l-2-0.5c2.2-8.7,12.6-17.4,20.2-23.9c1.2-1,2.2-1.9,3.3-2.8l1.3,1.5c-1,0.9-2.1,1.8-3.3,2.8
			C40.4,74.9,30.3,83.5,28.3,91.5z"/>
		<g>
			<circle fill="#58595B" cx="27.3" cy="91.1" r="3.8"/>
		</g>
		<g>
			<circle fill="#58595B" cx="50.2" cy="65.2" r="3.8"/>
		</g>
	</g>
	<g>
		<path fill="#58595B" d="M84.3,45L83,43.5l0.3-0.2c6.4-5.8,14.3-13,22.7-15.5l0.6,1.9c-7.9,2.3-15.7,9.3-21.9,15L84.3,45z"/>
		<g>
			<circle fill="#58595B" cx="106" cy="28.9" r="3.8"/>
		</g>
		<g>
			<circle fill="#58595B" cx="83.8" cy="44.1" r="3.8"/>
		</g>
	</g>
	<g>
		<path fill="#58595B" d="M57.1,60l-1.4-1.5c6.3-6,15.6-11.1,24.9-13.7l0.5,1.9C72.2,49.3,63.2,54.2,57.1,60z"/>
		<g>
			<circle fill="#58595B" cx="56.6" cy="59.2" r="3.8"/>
		</g>
		<g>
			<circle fill="#58595B" cx="80.7" cy="45.9" r="3.8"/>
		</g>
	</g>
	<g>
		<path fill="#58595B" d="M104.9,28.3l-1.5-1.3c8.2-9.7,29.1-11.8,41.5-13l0.3,2C132.9,17.2,112.6,19.2,104.9,28.3z"/>
		<g>
			<circle fill="#58595B" cx="104.2" cy="27.5" r="3.8"/>
		</g>
		<g>
			<circle fill="#58595B" cx="144.8" cy="15" r="3.8"/>
		</g>
	</g>
	<g>
		<path fill="#58595B" d="M167.5,12.7l-0.6-1.9c9.6-3.2,20.2-5.9,26.2-2.2l-1.1,1.7C186,6.6,173.1,10.9,167.5,12.7z"/>
		<g>
			<circle fill="#58595B" cx="192.4" cy="9.4" r="3.8"/>
		</g>
		<g>
			<circle fill="#58595B" cx="167.4" cy="11.7" r="3.8"/>
		</g>
	</g>
	<g>
		<path fill="#58595B" d="M153.9,15.6l-0.8-1.8c14.2-6.2,31.6-5.4,45.2-4l-0.2,2C184.8,10.5,167.6,9.7,153.9,15.6z"/>
		<g>
			<circle fill="#58595B" cx="153.7" cy="14.6" r="3.8"/>
		</g>
		<g>
			<circle fill="#58595B" cx="198" cy="10.9" r="3.8"/>
		</g>
	</g>
	<g>
		<path fill="#58595B" d="M214.8,13.1l-0.4-2l1.3-0.3c10.4-2.3,26.1-5.8,34.5-1.1l-1,1.8c-7.7-4.2-23.6-0.7-33.1,1.3L214.8,13.1z"/>
		<g>
			<circle fill="#58595B" cx="249.5" cy="10.6" r="3.8"/>
		</g>
		<g>
			<circle fill="#58595B" cx="214.8" cy="12.1" r="3.8"/>
		</g>
	</g>
	<g>
		<path fill="#58595B" d="M195.3,10.3l-0.9-1.8c16.8-8.5,40-6.2,52.3-4.1l-0.3,2C234.2,4.4,211.5,2.1,195.3,10.3z"/>
		<g>
			<circle fill="#58595B" cx="195" cy="9.4" r="3.8"/>
		</g>
		<g>
			<circle fill="#58595B" cx="246.2" cy="5.5" r="3.8"/>
		</g>
	</g>
	<g>
		<path fill="#58595B" d="M303.7,18.5c-7.2-2.3-15.2-3.1-22.9-4c-2.9-0.3-5.9-0.6-8.8-1l0.3-2c2.9,0.4,5.9,0.7,8.8,1
			c7.8,0.8,16,1.7,23.3,4L303.7,18.5z"/>
		<g>
			<circle fill="#58595B" cx="303.9" cy="17.6" r="3.8"/>
		</g>
		<g>
			<circle fill="#58595B" cx="272.3" cy="12.5" r="3.8"/>
		</g>
	</g>
	<g>
		<path fill="#58595B" d="M286.8,11.6c-1.5-0.3-3.1-0.6-4.9-0.9c-9.7-1.9-21.8-4.2-29.2-1.8L252.1,7c7.9-2.5,20.3-0.2,30.2,1.7
			c1.7,0.3,3.3,0.6,4.8,0.9L286.8,11.6z"/>
		<g>
			<circle fill="#58595B" cx="252.6" cy="7.9" r="3.8"/>
		</g>
		<g>
			<circle fill="#58595B" cx="286.8" cy="10.6" r="3.8"/>
		</g>
	</g>
	<g>
		<path fill="#58595B" d="M340,23.6c-1-0.4-2-0.8-3.1-1.2c-11.6-4.4-29.1-11.1-40.2-8.8l-0.4-2c11.7-2.4,28.8,4.1,41.3,8.9
			c1.1,0.4,2.1,0.8,3.1,1.2L340,23.6z"/>
		<g>
			<circle fill="#58595B" cx="296.7" cy="12.7" r="3.8"/>
		</g>
		<g>
			<circle fill="#58595B" cx="340.2" cy="22.5" r="3.8"/>
		</g>
	</g>
	<g>
		<path fill="#58595B" d="M376.7,45.2c-9-7.4-21-16.7-34.3-23c-1.9-0.9-4-1.6-6.1-2.3c-2.7-0.9-5.4-1.8-7.8-3.2l1-1.8
			c2.3,1.3,4.9,2.2,7.5,3c2.1,0.7,4.3,1.5,6.3,2.4c13.5,6.3,25.6,15.8,34.7,23.2L376.7,45.2z"/>
		<g>
			<circle fill="#58595B" cx="329.2" cy="15.9" r="3.8"/>
		</g>
		<g>
			<circle fill="#58595B" cx="377.2" cy="44.3" r="3.8"/>
		</g>
	</g>
	<g>
		<path fill="#58595B" d="M401.4,59.2c-7.8-7.2-18.1-11.1-28-14.8c-4.4-1.7-9-3.4-13.3-5.4l0.8-1.8c4.2,2,8.8,3.7,13.2,5.3
			c10.1,3.8,20.6,7.7,28.7,15.2L401.4,59.2z"/>
		<g>
			<circle fill="#58595B" cx="401.9" cy="58.4" r="3.8"/>
		</g>
		<g>
			<circle fill="#58595B" cx="360.7" cy="38.2" r="3.8"/>
		</g>
	</g>
	<g>
		<path fill="#58595B" d="M381.5,44.2c-1.1-0.6-2.2-1.2-3.4-1.9c-10.9-6.1-25.8-14.4-36.6-13.2l-0.2-2c11.5-1.3,26.7,7.2,37.8,13.4
			c1.2,0.7,2.3,1.3,3.4,1.9L381.5,44.2z"/>
		<g>
			<circle fill="#58595B" cx="341.6" cy="28.2" r="3.8"/>
		</g>
		<g>
			<circle fill="#58595B" cx="381.8" cy="43.2" r="3.8"/>
		</g>
	</g>
	<g>
		<path fill="#58595B" d="M430.2,341.5l-1.8-1c1.9-3.6,5.3-12.3-3.5-17.7l-0.5,0.3c-0.2-0.4-0.4-0.8-0.6-1.2l-1.2-2.8l2.6,1.5
			C433,325.1,434.9,332.8,430.2,341.5z"/>
		<g>
			<circle fill="#58595B" cx="425.2" cy="322.5" r="3.8"/>
		</g>
		<g>
			<circle fill="#58595B" cx="429.4" cy="340.9" r="3.8"/>
		</g>
	</g>
	<g>
		<path fill="#58595B" d="M413.9,364.5l-1.3-1.5c3.3-3,14.3-13.7,15.5-24.7l2,0.2C428.8,350.3,417.4,361.4,413.9,364.5z"/>
		<g>
			<circle fill="#58595B" cx="429" cy="338.6" r="3.8"/>
		</g>
		<g>
			<circle fill="#58595B" cx="413.4" cy="363.6" r="3.8"/>
		</g>
	</g>
	<g>
		<path fill="#58595B" d="M263.8,343.6c-1.3-1.8-13-18.2-11-29.2c0.5-2.9,2-5.2,4.3-6.8l1.1,1.7c-1.9,1.3-3,3.1-3.5,5.5
			c-1.5,8.3,6,21.3,10.7,27.7L263.8,343.6z"/>
		<g>
			<circle fill="#58595B" cx="257.5" cy="308.6" r="3.8"/>
		</g>
		<g>
			<circle fill="#58595B" cx="264.6" cy="342.8" r="3.8"/>
		</g>
	</g>
	<g>
		<path fill="#58595B" d="M291.8,372.7c-8.3-2.8-22.6-9.3-26-21c-0.4-1.5-1.3-5.4-0.1-8.2l1.9,0.8c-0.8,1.8-0.4,4.8,0.2,6.9
			c3.1,10.9,16.8,17,24.7,19.7L291.8,372.7z"/>
		<g>
			<circle fill="#58595B" cx="266.6" cy="344.1" r="3.8"/>
		</g>
		<g>
			<circle fill="#58595B" cx="292" cy="371.7" r="3.8"/>
		</g>
	</g>
	<g>
		<path fill="#58595B" d="M322.6,382.5c-8.5,0-18.2-0.8-25.5-5.8l1.1-1.7c8.9,5.9,21.7,5.6,31,5.3l0.1,2
			C327.1,382.5,324.9,382.5,322.6,382.5z"/>
		<g>
			<circle fill="#58595B" cx="297.8" cy="376" r="3.8"/>
		</g>
		<g>
			<circle fill="#58595B" cx="329" cy="381.4" r="3.8"/>
		</g>
	</g>
	<g>
		<path fill="#58595B" d="M337.2,386.6l0-2c9.6-0.1,19.8-2.3,29.7-4.5c2.6-0.6,5.2-1.1,7.8-1.7l0.4,2c-2.5,0.5-5.1,1.1-7.7,1.7
			C357.4,384.3,347.1,386.6,337.2,386.6z"/>
		<g>
			<circle fill="#58595B" cx="337.4" cy="385.6" r="3.8"/>
		</g>
		<g>
			<circle fill="#58595B" cx="374.7" cy="379.5" r="3.8"/>
		</g>
	</g>
	<g>
		<path fill="#58595B" d="M371.9,384.4c-0.7,0-1.4,0-2-0.1l0.2-2c7.9,0.9,22.6-5.2,27.4-7.2l0.8,1.9
			C386.3,381.9,377.6,384.4,371.9,384.4z"/>
		<g>
			<circle fill="#58595B" cx="370.2" cy="383.3" r="3.8"/>
		</g>
		<g>
			<circle fill="#58595B" cx="397.7" cy="376" r="3.8"/>
		</g>
	</g>
	<g>
		<path fill="#58595B" d="M397.3,377.8l-1.1-1.7c4.4-2.8,9.1-7.1,13-12l1.6,1.3C406.7,370.5,401.9,374.9,397.3,377.8z"/>
		<g>
			<circle fill="#58595B" cx="396.9" cy="376.9" r="3.8"/>
		</g>
		<g>
			<circle fill="#58595B" cx="409.9" cy="364.8" r="3.8"/>
		</g>
	</g>
	<g>
		<path fill="#58595B" d="M413.6,359.7l-1.6-1.3c1.2-1.5,2.6-3.4,3.8-5.6l1.8,0.9C416.4,356.1,414.8,358.2,413.6,359.7z"/>
		<g>
			<circle fill="#58595B" cx="416.6" cy="353.5" r="3.8"/>
		</g>
		<g>
			<circle fill="#58595B" cx="412.9" cy="358.9" r="3.8"/>
		</g>
	</g>
	<g>
		<path fill="#58595B" d="M249.4,353.9c-6.3-7.1-13.9-12.9-21.2-18.6c-5.1-3.9-10.4-8-15.2-12.4l1.4-1.5c4.8,4.4,10,8.4,15.1,12.3
			c7.4,5.7,15.1,11.6,21.5,18.8L249.4,353.9z"/>
		<g>
			<circle fill="#58595B" cx="213.9" cy="322.2" r="3.8"/>
		</g>
		<g>
			<circle fill="#58595B" cx="250" cy="353.1" r="3.8"/>
		</g>
	</g>
	<g>
		<path fill="#58595B" d="M236.1,350.2c-1.3-1.7-2.6-3.5-4.1-5.4c-6.3-8.3-13.4-17.7-16.6-26.5l1.9-0.7c3.1,8.6,10.1,17.8,16.3,26
			c1.4,1.9,2.8,3.7,4.1,5.4L236.1,350.2z"/>
		<g>
			<circle fill="#58595B" cx="216.4" cy="318.2" r="3.8"/>
		</g>
		<g>
			<circle fill="#58595B" cx="236.7" cy="349.5" r="3.8"/>
		</g>
	</g>
	<g>
		<path fill="#58595B" d="M255.1,369.5c-2.9-2.6-6-5.2-8.9-7.7c-7.2-6.2-14.6-12.6-21.4-19.4l1.4-1.4c6.8,6.8,14.2,13.2,21.3,19.4
			c2.9,2.5,6,5.1,8.9,7.8L255.1,369.5z"/>
		<g>
			<circle fill="#58595B" cx="225.6" cy="341.7" r="3.8"/>
		</g>
		<g>
			<circle fill="#58595B" cx="255.6" cy="368.7" r="3.8"/>
		</g>
	</g>
	<g>
		<path fill="#58595B" d="M279.9,395.2c-2.4-3.1-4.8-6.4-7.1-9.6c-5.9-8.2-12-16.6-19.6-22.6l1.2-1.6c7.9,6.1,14.1,14.7,20,23
			c2.3,3.2,4.7,6.5,7,9.5L279.9,395.2z"/>
		<g>
			<circle fill="#58595B" cx="253.9" cy="362.4" r="3.8"/>
		</g>
		<g>
			<circle fill="#58595B" cx="280.6" cy="394.4" r="3.8"/>
		</g>
	</g>
	<g>
		<path fill="#58595B" d="M289.5,413.4c-5.5-9.2-11.8-17.8-17.2-25.1l1.6-1.2c5.5,7.4,11.8,16,17.3,25.3L289.5,413.4z"/>
		<g>
			<circle fill="#58595B" cx="273.2" cy="387.8" r="3.8"/>
		</g>
		<g>
			<circle fill="#58595B" cx="290.3" cy="412.7" r="3.8"/>
		</g>
	</g>
	<g>
		<path fill="#58595B" d="M291.2,429.4c-3.9-6.3-8.2-12.3-12.4-18.2c-4-5.5-8-11.2-11.7-17.1l1.7-1.1c3.6,5.8,7.7,11.5,11.6,17
			c4.2,5.9,8.6,12,12.5,18.3L291.2,429.4z"/>
		<g>
			<circle fill="#58595B" cx="268.1" cy="393.8" r="3.8"/>
		</g>
		<g>
			<circle fill="#58595B" cx="291.9" cy="428.8" r="3.8"/>
		</g>
	</g>
	<g>
		<path fill="#58595B" d="M306.1,455.2c-2.3-6-4.8-12.7-6.5-19.4l2-0.5c1.6,6.6,4.1,13.3,6.4,19.2L306.1,455.2z"/>
		<g>
			<circle fill="#58595B" cx="300.7" cy="435.7" r="3.8"/>
		</g>
		<g>
			<circle fill="#58595B" cx="307" cy="454.6" r="3.8"/>
		</g>
	</g>
	<g>
		<path fill="#58595B" d="M297.9,455l-0.1-0.5c-1.5-5-3-10.2-3.6-15.4l2-0.3c0.7,5.1,2.1,10.2,3.6,15.1l0.1,0.5L297.9,455z"/>
		<g>
			<circle fill="#58595B" cx="295.1" cy="439.2" r="3.8"/>
		</g>
		<g>
			<circle fill="#58595B" cx="298.8" cy="454.5" r="3.8"/>
		</g>
	</g>
	<g>
		<path fill="#58595B" d="M303,461.4l-1.4-1.5c1.9-1.7,4-3.1,6.2-4.1l0.8,1.9C306.6,458.5,304.7,459.8,303,461.4z"/>
		<g>
			<circle fill="#58595B" cx="302.4" cy="460.5" r="3.8"/>
		</g>
		<g>
			<circle fill="#58595B" cx="308.1" cy="456.8" r="3.8"/>
		</g>
	</g>
	<g>
		<polygon fill="#58595B" points="315,454.8 313.6,453.3 314.1,452.9 315.4,454.4 		"/>
		<g>
			<circle fill="#58595B" cx="314.4" cy="453.9" r="3.8"/>
		</g>
		<g>
			<circle fill="#58595B" cx="314.6" cy="453.8" r="3.8"/>
		</g>
	</g>
	<g>
		<path fill="#58595B" d="M316.5,437.2l-0.2-0.7c-1-3.4-2-6.9-2-10.3l2,0c0,3.1,1,6.4,1.9,9.7l0.2,0.7L316.5,437.2z"/>
		<g>
			<circle fill="#58595B" cx="315.4" cy="426.5" r="3.8"/>
		</g>
		<g>
			<circle fill="#58595B" cx="317.4" cy="436.8" r="3.8"/>
		</g>
	</g>
	<g>
		<path fill="#58595B" d="M307.3,410.8c-2.5-4.5-4.7-9.2-6.8-13.8c-0.8-1.7-1.6-3.4-2.4-5.2l1.8-0.9c0.8,1.7,1.6,3.4,2.4,5.2
			c2.1,4.5,4.2,9.2,6.7,13.6L307.3,410.8z"/>
		<g>
			<circle fill="#58595B" cx="299.1" cy="391.6" r="3.8"/>
		</g>
		<g>
			<circle fill="#58595B" cx="308.1" cy="410.1" r="3.8"/>
		</g>
	</g>
	<g>
		<path fill="#58595B" d="M282.8,382.9l-1-1.7c-0.8-1.3-1.5-2.6-2.3-3.9l1.8-1c0.7,1.3,1.5,2.6,2.3,3.8l1,1.7L282.8,382.9z"/>
		<g>
			<circle fill="#58595B" cx="280.5" cy="377" r="3.8"/>
		</g>
		<g>
			<circle fill="#58595B" cx="283.5" cy="382.3" r="3.8"/>
		</g>
	</g>
	<g>
		<path fill="#58595B" d="M297.8,404.3c-0.6-0.9-1.2-1.7-1.9-2.6c-4.9-6.8-10.4-14.5-12.5-22.5l2-0.5c2,7.7,7.4,15.2,12.2,21.8
			c0.6,0.9,1.3,1.7,1.9,2.6L297.8,404.3z"/>
		<g>
			<circle fill="#58595B" cx="284.5" cy="379.1" r="3.8"/>
		</g>
		<g>
			<circle fill="#58595B" cx="298.5" cy="403.6" r="3.8"/>
		</g>
	</g>
	<g>
		<path fill="#58595B" d="M307.8,430.6c-0.4-1.1-0.8-2.2-1.2-3.4c-2.3-6.1-4.7-12.4-5.2-18.6l2-0.2c0.5,5.9,2.8,12.1,5.1,18.1
			c0.4,1.1,0.9,2.3,1.3,3.4L307.8,430.6z"/>
		<g>
			<circle fill="#58595B" cx="302.4" cy="408.7" r="3.8"/>
		</g>
		<g>
			<circle fill="#58595B" cx="308.7" cy="430.1" r="3.8"/>
		</g>
	</g>
	<g>
		<path fill="#58595B" d="M314.7,438.1c-1.4-5-2.3-10.6-2.4-16l2,0c0.1,5.3,0.9,10.7,2.3,15.5L314.7,438.1z"/>
		<g>
			<circle fill="#58595B" cx="313.4" cy="422.3" r="3.8"/>
		</g>
		<g>
			<circle fill="#58595B" cx="315.6" cy="437.7" r="3.8"/>
		</g>
	</g>
	<g>
		<polygon fill="#58595B" points="318.2,450.3 318.2,450.2 320.1,449.6 320.1,449.7 		"/>
		<g>
			<circle fill="#58595B" cx="319.2" cy="450.1" r="3.8"/>
		</g>
		<g>
			<circle fill="#58595B" cx="319.1" cy="449.8" r="3.8"/>
		</g>
	</g>
	<g>
		<path fill="#58595B" d="M319.1,446.6c-0.3-0.9-0.6-1.8-0.9-2.7l-0.4-1.3l1.9-0.6l0.4,1.3c0.3,0.9,0.6,1.9,0.9,2.8L319.1,446.6z"/>
		<g>
			<circle fill="#58595B" cx="319.9" cy="446.1" r="3.8"/>
		</g>
		<g>
			<circle fill="#58595B" cx="318.7" cy="442.4" r="3.8"/>
		</g>
	</g>
	<g>
		<path fill="#58595B" d="M309.6,413.6c-0.3-1.2-0.6-2.5-0.9-4.1l2-0.4c0.3,1.5,0.6,2.8,0.9,3.9L309.6,413.6z"/>
		<g>
			<circle fill="#58595B" cx="309.8" cy="409.5" r="3.8"/>
		</g>
		<g>
			<circle fill="#58595B" cx="310.6" cy="413.2" r="3.8"/>
		</g>
	</g>
	<g>
		<path fill="#58595B" d="M291.8,377.3l-0.1-0.2c-0.4-1.2-0.7-2.4-1.1-3.4l1.9-0.7c0.4,1.1,0.8,2.3,1.1,3.5l0.1,0.2L291.8,377.3z"/>
		<g>
			<circle fill="#58595B" cx="291.6" cy="373.6" r="3.8"/>
		</g>
		<g>
			<circle fill="#58595B" cx="292.7" cy="376.9" r="3.8"/>
		</g>
	</g>
	<g>
		<path fill="#58595B" d="M253.4,348.9c-0.5-1-1-2-1.5-3.1c-4.7-9.4-9.9-20.2-11.1-30.1l2-0.2c1.2,9.6,6.4,20.2,11,29.5
			c0.5,1,1,2.1,1.5,3.1L253.4,348.9z"/>
		<g>
			<circle fill="#58595B" cx="241.8" cy="315.8" r="3.8"/>
		</g>
		<g>
			<circle fill="#58595B" cx="254.2" cy="348.3" r="3.8"/>
		</g>
	</g>
	<g>
		<path fill="#58595B" d="M233.2,328.6l-0.1-0.2c-1.1-2.5-2.3-5.1-3.6-7.7l1.8-0.9c1.2,2.5,2.4,5.2,3.6,7.7l0.1,0.2L233.2,328.6z"/>
		<g>
			<circle fill="#58595B" cx="230.5" cy="320.5" r="3.8"/>
		</g>
		<g>
			<circle fill="#58595B" cx="234" cy="328" r="3.8"/>
		</g>
	</g>
	<g>
		<path fill="#58595B" d="M17,131.1l-2-0.2c1.1-8.8,8.8-17.9,19.8-23.2c9.7-4.6,19.5-4.9,26.2-0.7l-1.1,1.7
			c-6.1-3.8-15.2-3.5-24.3,0.8C25.4,114.4,17.9,123.1,17,131.1z"/>
		<g>
			<circle fill="#58595B" cx="60.2" cy="107.7" r="3.8"/>
		</g>
		<g>
			<circle fill="#58595B" cx="16" cy="130.8" r="3.8"/>
		</g>
	</g>
	<g>
		<path fill="#58595B" d="M16.8,146.3c-0.7-6.9,1.7-13.4,6.6-17.9l1.4,1.5c-4.5,4.1-6.6,9.9-5.9,16.2L16.8,146.3z"/>
		<g>
			<circle fill="#58595B" cx="17.8" cy="146" r="3.8"/>
		</g>
		<g>
			<circle fill="#58595B" cx="23.9" cy="129.3" r="3.8"/>
		</g>
	</g>
	<g>
		<path fill="#58595B" d="M13,183.6c-3.4-5.7-6.6-14.9-4.5-22.1c1-3.3,3-5.8,6-7.3l0.9,1.8c-2.5,1.3-4.2,3.3-5,6.1
			c-1.8,6.1,0.9,14.7,4.3,20.5L13,183.6z"/>
		<g>
			<circle fill="#58595B" cx="14.9" cy="155.3" r="3.8"/>
		</g>
		<g>
			<circle fill="#58595B" cx="13.8" cy="183" r="3.8"/>
		</g>
	</g>
	<g>
		<path fill="#58595B" d="M38.2,207.3c-4.5-9.5,3.6-25.6,6.2-30.4l1.8,1c-5.1,9.3-9.4,21.7-6.2,28.5L38.2,207.3z"/>
		<g>
			<circle fill="#58595B" cx="39.1" cy="206.7" r="3.8"/>
		</g>
		<g>
			<circle fill="#58595B" cx="45.3" cy="177.6" r="3.8"/>
		</g>
	</g>
	<g>
		<path fill="#58595B" d="M46.3,174l-1.8-0.9c2.8-5.8,6.3-12.4,11-16.8l1.4,1.5C52.3,162,49,168.3,46.3,174z"/>
		<g>
			<circle fill="#58595B" cx="56" cy="157.2" r="3.8"/>
		</g>
		<g>
			<circle fill="#58595B" cx="45.5" cy="173.4" r="3.8"/>
		</g>
	</g>
	<g>
		<path fill="#58595B" d="M34.4,163c-1.1-0.7-2.2-1.3-3.3-2c-3.7-2.2-7.5-4.4-10.4-7.7l1.5-1.3c2.7,3,6.2,5.1,9.9,7.3
			c1.1,0.7,2.2,1.3,3.3,2L34.4,163z"/>
		<g>
			<circle fill="#58595B" cx="21.6" cy="152.8" r="3.8"/>
		</g>
		<g>
			<circle fill="#58595B" cx="34.7" cy="162" r="3.8"/>
		</g>
	</g>
	<g>
		<path fill="#58595B" d="M65.3,202.1l-2-0.3c0.8-5.6,3.4-13.9,6.5-18.2l1.6,1.2C68.5,188.8,66,196.9,65.3,202.1z"/>
		<g>
			<circle fill="#58595B" cx="70.5" cy="184.4" r="3.8"/>
		</g>
		<g>
			<circle fill="#58595B" cx="64.3" cy="201.8" r="3.8"/>
		</g>
	</g>
	<g>
		<path fill="#58595B" d="M50.7,219.7l-1-1.7c8.9-5.1,20-6.6,29.1-3.7l-0.6,1.9C69.7,213.5,59.1,214.8,50.7,219.7z"/>
		<g>
			<circle fill="#58595B" cx="78.3" cy="215.2" r="3.8"/>
		</g>
		<g>
			<circle fill="#58595B" cx="50.4" cy="218.7" r="3.8"/>
		</g>
	</g>
	<g>
		<path fill="#58595B" d="M31.1,229.3l-1.2-1.6c3.5-2.6,8.4-5,14.4-6.9l0.6,1.9C39,224.6,34.4,226.8,31.1,229.3z"/>
		<g>
			<circle fill="#58595B" cx="30.6" cy="228.4" r="3.8"/>
		</g>
		<g>
			<circle fill="#58595B" cx="44.4" cy="221.9" r="3.8"/>
		</g>
	</g>
	<g>
		<path fill="#58595B" d="M105.7,233.3c-7.5-7.2-16.4-11.3-25.9-15.5l-1-0.5l0.8-1.8l1,0.5c9.6,4.4,18.7,8.5,26.4,15.9L105.7,233.3z
			"/>
		<g>
			<circle fill="#58595B" cx="79.4" cy="216.4" r="3.8"/>
		</g>
		<g>
			<circle fill="#58595B" cx="106.2" cy="232.4" r="3.8"/>
		</g>
	</g>
	<g>
		<path fill="#58595B" d="M88.7,151.6c-0.9,0-1.7,0-2.6-0.1l0.2-2c9.2,1,17.7-4,24.1-8.5l1.2,1.7C105.5,146.8,97.5,151.6,88.7,151.6
			z"/>
		<g>
			<circle fill="#58595B" cx="86.4" cy="150.4" r="3.8"/>
		</g>
		<g>
			<circle fill="#58595B" cx="110.9" cy="141.9" r="3.8"/>
		</g>
	</g>
	<g>
		<path fill="#58595B" d="M114.4,137.4l-1.6-1.2l0.1-0.2c3.4-4.4,6.9-8.9,9.5-13.9l1.8,0.9c-2.7,5.1-6.3,9.7-9.7,14.2L114.4,137.4z"
			/>
		<g>
			<circle fill="#58595B" cx="113.7" cy="136.6" r="3.8"/>
		</g>
		<g>
			<circle fill="#58595B" cx="123.3" cy="122.8" r="3.8"/>
		</g>
	</g>
	<g>
		<path fill="#58595B" d="M127.9,117.3l-1.3-1.5c7.5-6.8,22.5-5.7,34.7-3.9l-0.3,2C149.2,112.2,134.8,111.1,127.9,117.3z"/>
		<g>
			<circle fill="#58595B" cx="127.4" cy="116.5" r="3.8"/>
		</g>
		<g>
			<circle fill="#58595B" cx="160.9" cy="112.9" r="3.8"/>
		</g>
	</g>
	<g>
		<path fill="#58595B" d="M178.5,120.7c-2.6-2.5-6.4-4.5-10.6-5.6l0.5-1.9c4.5,1.2,8.6,3.4,11.5,6.1L178.5,120.7z"/>
		<g>
			<circle fill="#58595B" cx="179" cy="119.9" r="3.8"/>
		</g>
		<g>
			<circle fill="#58595B" cx="168.3" cy="114.2" r="3.8"/>
		</g>
	</g>
	<g>
		<path fill="#58595B" d="M109.4,113.5l-1.2-1.7c-2.3-3.4-4.6-6.9-6.5-10.7l1.8-0.9c1.8,3.6,4.1,7.1,6.3,10.4l1.2,1.7L109.4,113.5z"
			/>
		<g>
			<circle fill="#58595B" cx="102.8" cy="100.9" r="3.8"/>
		</g>
		<g>
			<circle fill="#58595B" cx="110.2" cy="112.8" r="3.8"/>
		</g>
	</g>
	<g>
		<path fill="#58595B" d="M104.5,105.3c-3.2-2.7-7.3-7-8.8-12.5l1.9-0.5c1.3,5,5.2,9,8.1,11.5L104.5,105.3z"/>
		<g>
			<circle fill="#58595B" cx="96.7" cy="92.7" r="3.8"/>
		</g>
		<g>
			<circle fill="#58595B" cx="105" cy="104.4" r="3.8"/>
		</g>
	</g>
	<g>
		<path fill="#58595B" d="M113.7,116.7c-3.5-2.1-6.5-4-9.1-6.5l1.4-1.4c2.4,2.4,5.4,4.2,8.8,6.2L113.7,116.7z"/>
		<g>
			<circle fill="#58595B" cx="105.5" cy="109.5" r="3.8"/>
		</g>
		<g>
			<circle fill="#58595B" cx="114.1" cy="115.7" r="3.8"/>
		</g>
	</g>
	<g>
		<path fill="#58595B" d="M63.1,66.8l-1.4-1.4c5.7-5.7,9.6-10.7,12.4-15.7l1.5-2.6l0.4,2.9c0,0.2,0,0.3,0.1,0.5l-0.4,0l0.2,0.1
			C73,55.9,68.9,61,63.1,66.8z"/>
		<g>
			<circle fill="#58595B" cx="75" cy="50.5" r="3.8"/>
		</g>
		<g>
			<circle fill="#58595B" cx="62.5" cy="66" r="3.8"/>
		</g>
	</g>
	<g>
		<path fill="#58595B" d="M37.3,95.2c-1.7-4.8-3.9-14,0-20.8l1.7,1c-3.6,6.2-1.5,14.6,0.1,19.2L37.3,95.2z"/>
		<g>
			<circle fill="#58595B" cx="38.1" cy="75.1" r="3.8"/>
		</g>
		<g>
			<circle fill="#58595B" cx="38.2" cy="94.7" r="3.8"/>
		</g>
	</g>
	<g>
		<path fill="#58595B" d="M94.6,45.2c-0.3,0-0.6,0-0.9,0l0.1-2c2.2,0.1,4.6-0.4,7.1-0.9l0.4,2C99.1,44.7,96.8,45.2,94.6,45.2z"/>
		<g>
			<circle fill="#58595B" cx="94" cy="44.2" r="3.8"/>
		</g>
		<g>
			<circle fill="#58595B" cx="100.9" cy="43.3" r="3.8"/>
		</g>
	</g>
	<g>
		<path fill="#58595B" d="M109.5,38.4l-1.9-0.7c3.5-8.9,20-13.3,29.6-15.1l0.4,2C130.3,26,112.8,30.1,109.5,38.4z"/>
		<g>
			<circle fill="#58595B" cx="108.7" cy="37.9" r="3.8"/>
		</g>
		<g>
			<circle fill="#58595B" cx="137.2" cy="23.7" r="3.8"/>
		</g>
	</g>
	<g>
		<g>
			<circle fill="#58595B" cx="153.6" cy="20.4" r="3.8"/>
		</g>
		<g>
			<circle fill="#58595B" cx="151.3" cy="21.7" r="3.8"/>
		</g>
	</g>
	<g>
		
			<rect x="185.2" y="14.9" transform="matrix(0.4047 0.9144 -0.9144 0.4047 124.9551 -161.0589)" fill="#58595B" width="2" height="1.1"/>
		<g>
			<circle fill="#58595B" cx="186.5" cy="15.3" r="3.8"/>
		</g>
		<g>
			<circle fill="#58595B" cx="185.8" cy="15.6" r="3.8"/>
		</g>
	</g>
	<g>
		<path fill="#58595B" d="M199.9,35.9c-0.3-1.1-0.7-2.2-1-3.3c-2-6.5-4-13.2-3-19.9l0.3-2.1l1.4,1.5c0.3,0.3,0.6,0.7,0.9,1.2
			l-0.7,0.5c-0.7,5.9,1.2,12.2,3,18.2c0.3,1.1,0.7,2.2,1,3.3L199.9,35.9z"/>
		<g>
			<circle fill="#58595B" cx="197.6" cy="13.7" r="3.8"/>
		</g>
		<g>
			<circle fill="#58595B" cx="200.8" cy="35.4" r="3.8"/>
		</g>
	</g>
	<g>
		<path fill="#58595B" d="M211.5,18.8l-1.1-1.7c0.7-0.4,1.4-0.9,2.1-1.4c2.5-1.6,5-3.3,7.4-4l0.6,1.9c-2.1,0.6-4.5,2.2-6.8,3.7
			C212.9,17.9,212.2,18.4,211.5,18.8z"/>
		<g>
			<circle fill="#58595B" cx="220" cy="12.8" r="3.8"/>
		</g>
		<g>
			<circle fill="#58595B" cx="211.1" cy="17.9" r="3.8"/>
		</g>
	</g>
	<g>
		<path fill="#58595B" d="M209.9,33.5l-1.6-1.3c2.2-2.8,5.7-6.9,10-9.4l1,1.7C215.3,26.9,212,30.8,209.9,33.5z"/>
		<g>
			<circle fill="#58595B" cx="218.7" cy="23.8" r="3.8"/>
		</g>
		<g>
			<circle fill="#58595B" cx="209.2" cy="32.7" r="3.8"/>
		</g>
	</g>
	<g>
		<path fill="#58595B" d="M168.4,30.7c-3.8,0-7.6-0.4-11.5-1.4l0.5-2c10.4,2.7,19.8,0.9,29.9-1c2.2-0.4,4.4-0.8,6.7-1.2l0.3,2
			c-2.2,0.4-4.5,0.8-6.6,1.2C181.1,29.5,174.8,30.7,168.4,30.7z"/>
		<g>
			<circle fill="#58595B" cx="193.9" cy="26.2" r="3.8"/>
		</g>
		<g>
			<circle fill="#58595B" cx="157.3" cy="28.3" r="3.8"/>
		</g>
	</g>
	<g>
		<path fill="#58595B" d="M116.8,43.8l-0.7-1.9l1.6-0.6c6.9-2.7,14.1-5.5,21.3-6.4l0.2,2c-7,0.9-14,3.6-20.8,6.2L116.8,43.8z"/>
		<g>
			<circle fill="#58595B" cx="138.9" cy="36" r="3.8"/>
		</g>
		<g>
			<circle fill="#58595B" cx="116.6" cy="42.8" r="3.8"/>
		</g>
	</g>
	<g>
		<path fill="#58595B" d="M73.5,64l-1.1-1.7c3.1-2,6.4-3.6,9.1-4.9l0.9,1.8C79.7,60.5,76.5,62.1,73.5,64z"/>
		<g>
			<circle fill="#58595B" cx="73.1" cy="63.1" r="3.8"/>
		</g>
		<g>
			<circle fill="#58595B" cx="81.8" cy="58.5" r="3.8"/>
		</g>
	</g>
	<g>
		<path fill="#58595B" d="M58.1,92.9L56.3,92c1.7-3.5,3.2-7.1,4.8-10.6c2.7-6.2,5.5-12.5,8.8-18.6l1.8,1c-3.3,6-6,12.3-8.7,18.4
			C61.4,85.7,59.8,89.4,58.1,92.9z"/>
		<g>
			<circle fill="#58595B" cx="70.7" cy="63.5" r="3.8"/>
		</g>
		<g>
			<circle fill="#58595B" cx="57.2" cy="92.3" r="3.8"/>
		</g>
	</g>
	<g>
		<path fill="#58595B" d="M127.4,90.8l-1.3-1.6c4.5-3.6,9.8-6.2,14.9-8.8c1-0.5,2-1,3.1-1.6l0.9,1.8c-1,0.5-2,1-3.1,1.6
			C136.9,84.7,131.8,87.3,127.4,90.8z"/>
		<g>
			<circle fill="#58595B" cx="126.9" cy="89.9" r="3.8"/>
		</g>
		<g>
			<circle fill="#58595B" cx="144.4" cy="79.7" r="3.8"/>
		</g>
	</g>
	<g>
		<path fill="#58595B" d="M142.8,103.4l-2-0.5c0.9-3.6,1.7-7.3,2.5-10.9c1.4-6.4,2.9-13,4.8-19.4l1.9,0.6
			c-1.9,6.3-3.4,12.9-4.8,19.3C144.6,96.1,143.7,99.8,142.8,103.4z"/>
		<g>
			<circle fill="#58595B" cx="149.2" cy="73.1" r="3.8"/>
		</g>
		<g>
			<circle fill="#58595B" cx="141.8" cy="103" r="3.8"/>
		</g>
	</g>
	<g>
		<path fill="#58595B" d="M169.4,83.2c-3.9-2.1-7.6-4.5-11.2-6.9c-3-2-6.2-4.1-9.4-5.9l1-1.8c3.3,1.8,6.5,4,9.6,6
			c3.5,2.4,7.2,4.8,11,6.8L169.4,83.2z"/>
		<g>
			<circle fill="#58595B" cx="149.4" cy="69.6" r="3.8"/>
		</g>
		<g>
			<circle fill="#58595B" cx="169.7" cy="82.2" r="3.8"/>
		</g>
	</g>
	<g>
		<path fill="#58595B" d="M190,100l-2-0.4c2.6-11.5,6.8-25.8,16.2-34.4l1.4,1.5C196.6,74.8,192.6,88.8,190,100z"/>
		<g>
			<circle fill="#58595B" cx="204.8" cy="66" r="3.8"/>
		</g>
		<g>
			<circle fill="#58595B" cx="189.2" cy="99.6" r="3.8"/>
		</g>
	</g>
	<g>
		<path fill="#58595B" d="M186.7,88.2c-2.1-1.6-4.5-2.9-6.7-4.2l1-1.8c2.4,1.3,4.8,2.6,7,4.4L186.7,88.2z"/>
		<g>
			<circle fill="#58595B" cx="187.2" cy="87.2" r="3.8"/>
		</g>
		<g>
			<circle fill="#58595B" cx="180.6" cy="83.2" r="3.8"/>
		</g>
	</g>
	<g>
		<path fill="#58595B" d="M167.5,70.6l-0.4-2l0.7-0.1c4.6-1,9.4-2.1,14.3-2.4l0.1,2c-4.8,0.3-9.3,1.3-14,2.4L167.5,70.6z"/>
		<g>
			<circle fill="#58595B" cx="167.5" cy="69.6" r="3.8"/>
		</g>
		<g>
			<circle fill="#58595B" cx="182" cy="67.1" r="3.8"/>
		</g>
	</g>
	<g>
		<path fill="#58595B" d="M201.4,66.1c-1.4-3.1-1.6-6.9-0.3-10.6l1.9,0.6c-1.1,3.2-1,6.5,0.3,9.1L201.4,66.1z"/>
		<g>
			<circle fill="#58595B" cx="202.2" cy="65.5" r="3.8"/>
		</g>
		<g>
			<circle fill="#58595B" cx="201.9" cy="56.1" r="3.8"/>
		</g>
	</g>
	<g>
		<path fill="#58595B" d="M195.8,57.5c-7.1-3.6-16.6-4.1-25-4l0-2c8.6-0.1,18.4,0.3,25.9,4.2L195.8,57.5z"/>
		<g>
			<circle fill="#58595B" cx="196" cy="56.6" r="3.8"/>
		</g>
		<g>
			<circle fill="#58595B" cx="171" cy="52.6" r="3.8"/>
		</g>
	</g>
	<g>
		<path fill="#58595B" d="M108.4,66.5l-1.5-1.4c6.1-6.5,17.2-8.3,26.1-9.8c0.9-0.2,1.8-0.3,2.6-0.4l0.3,2c-0.8,0.1-1.7,0.3-2.6,0.4
			C124.7,58.7,114,60.5,108.4,66.5z"/>
		<g>
			<circle fill="#58595B" cx="107.8" cy="65.7" r="3.8"/>
		</g>
		<g>
			<circle fill="#58595B" cx="135.6" cy="55.8" r="3.8"/>
		</g>
	</g>
	<g>
		<path fill="#58595B" d="M143.9,53.1l-0.3-2c0.9-0.2,1.9-0.3,2.9-0.5c5-0.9,10.1-1.8,14.9-0.9l-0.4,2c-4.5-0.8-9.5,0-14.2,0.9
			C145.8,52.8,144.8,53,143.9,53.1z"/>
		<g>
			<circle fill="#58595B" cx="161" cy="50.7" r="3.8"/>
		</g>
		<g>
			<circle fill="#58595B" cx="143.9" cy="52" r="3.8"/>
		</g>
	</g>
	<g>
		<path fill="#58595B" d="M73.5,95.6l-1.8-1C78.6,82.3,87.2,67,102,63.7l0.4,2C88.6,68.7,80.2,83.6,73.5,95.6z"/>
		<g>
			<circle fill="#58595B" cx="102" cy="64.7" r="3.8"/>
		</g>
		<g>
			<circle fill="#58595B" cx="72.7" cy="94.9" r="3.8"/>
		</g>
	</g>
	<g>
		<path fill="#58595B" d="M61.6,122.9l-1.9-0.6c1.8-5.6,6.2-11,10-15.7c0.5-0.6,1-1.3,1.5-1.9l1.6,1.3c-0.5,0.6-1,1.3-1.6,1.9
			C67.5,112.4,63.3,117.6,61.6,122.9z"/>
		<g>
			<circle fill="#58595B" cx="60.7" cy="122.4" r="3.8"/>
		</g>
		<g>
			<circle fill="#58595B" cx="71.9" cy="105.4" r="3.8"/>
		</g>
	</g>
	<g>
		<path fill="#58595B" d="M110.3,73.3c-2-0.7-3.9-1.1-5.5-1.1c0,0,0,0,0,0l0-2c1.8,0,3.9,0.4,6.2,1.2L110.3,73.3z"/>
		<g>
			<circle fill="#58595B" cx="105" cy="71.2" r="3.8"/>
		</g>
		<g>
			<circle fill="#58595B" cx="110.4" cy="72.3" r="3.8"/>
		</g>
	</g>
	<g>
		<path fill="#58595B" d="M114.6,181.7c-4.4-2.8-8.7-5.9-12.9-8.8c-2.3-1.6-4.6-3.3-6.9-4.9l1.1-1.7c2.3,1.6,4.6,3.3,7,4.9
			c4.1,2.9,8.4,6,12.8,8.8L114.6,181.7z"/>
		<g>
			<circle fill="#58595B" cx="95.4" cy="167.4" r="3.8"/>
		</g>
		<g>
			<circle fill="#58595B" cx="115" cy="180.7" r="3.8"/>
		</g>
	</g>
	<g>
		<path fill="#58595B" d="M166.1,166.5l-2-0.1c0.4-6.6-1.5-12.3-3.5-18.3c-1.1-3.4-2.3-7-3-10.7l2-0.4c0.7,3.6,1.8,7.1,2.9,10.5
			C164.5,153.4,166.5,159.6,166.1,166.5z"/>
		<g>
			<circle fill="#58595B" cx="158.6" cy="137.4" r="3.8"/>
		</g>
		<g>
			<circle fill="#58595B" cx="165.1" cy="166.3" r="3.8"/>
		</g>
	</g>
	<g>
		<path fill="#58595B" d="M122.1,193.7c-3.4-2.1-6.7-4.9-10-7.7c-4-3.4-8.2-7-12.1-8.8l0.8-1.8c4.2,1.9,8.5,5.5,12.6,9.1
			c3.2,2.7,6.5,5.5,9.7,7.5L122.1,193.7z"/>
		<g>
			<circle fill="#58595B" cx="100.6" cy="176.5" r="3.8"/>
		</g>
		<g>
			<circle fill="#58595B" cx="122.4" cy="192.8" r="3.8"/>
		</g>
	</g>
	<g>
		<path fill="#58595B" d="M192.5,147c-11.4-23.6-7.9-35.1-4.9-39.8l1.7,1.1c-6.9,10.6,1.2,30,5,37.8L192.5,147z"/>
		<g>
			<circle fill="#58595B" cx="188.4" cy="107.9" r="3.8"/>
		</g>
		<g>
			<circle fill="#58595B" cx="193.4" cy="146.4" r="3.8"/>
		</g>
	</g>
	<g>
		<path fill="#58595B" d="M184.4,161.7l-1.7-1.1c1.9-3,4.2-7,4.6-11.6l2,0.2C188.8,154.3,186.4,158.5,184.4,161.7z"/>
		<g>
			<circle fill="#58595B" cx="188.2" cy="149.3" r="3.8"/>
		</g>
		<g>
			<circle fill="#58595B" cx="183.6" cy="161" r="3.8"/>
		</g>
	</g>
	<g>
		<path fill="#58595B" d="M175.9,171l0-2c9-0.1,19.6-0.6,30.7-3.3l0.5,2C195.7,170.5,184.9,170.9,175.9,171z"/>
		<g>
			<circle fill="#58595B" cx="176" cy="170" r="3.8"/>
		</g>
		<g>
			<circle fill="#58595B" cx="206.6" cy="166.8" r="3.8"/>
		</g>
	</g>
	<g>
		<path fill="#58595B" d="M193.7,186.4c-1.8-2.3-3.5-4.7-5.1-7c-1.5-2.1-2.9-4.1-4.3-5.9l-1.7-0.5c0.2-0.6,0.4-1.2,0.8-1.8l0.8-1.2
			l0.9,1.2c1.7,2.2,3.4,4.6,5.2,7.1c1.7,2.3,3.4,4.7,5.1,7L193.7,186.4z"/>
		<g>
			<circle fill="#58595B" cx="183.6" cy="173" r="3.8"/>
		</g>
		<g>
			<circle fill="#58595B" cx="194.5" cy="185.6" r="3.8"/>
		</g>
	</g>
	<g>
		<path fill="#58595B" d="M157.1,190.3c-0.9-5.2-1.8-11.3-2-17.5l2,0c0.1,6.1,1.1,12.1,1.9,17.2L157.1,190.3z"/>
		<g>
			<circle fill="#58595B" cx="156.2" cy="173" r="3.8"/>
		</g>
		<g>
			<circle fill="#58595B" cx="158.1" cy="190" r="3.8"/>
		</g>
	</g>
	<g>
		<path fill="#58595B" d="M135.2,226.6c-1-6.9-1.5-14.7,2.4-20l1.6,1.2c-3.5,4.7-3,12-2,18.5L135.2,226.6z"/>
		<g>
			<circle fill="#58595B" cx="138.3" cy="207.4" r="3.8"/>
		</g>
		<g>
			<circle fill="#58595B" cx="136.2" cy="226.3" r="3.8"/>
		</g>
	</g>
	<g>
		<path fill="#58595B" d="M124.6,258.5c-4.8-0.6-8.7-0.9-12.3-1.1l0.1-2c3.6,0.2,7.5,0.6,12.4,1.1L124.6,258.5z"/>
		<g>
			<circle fill="#58595B" cx="112.6" cy="256.4" r="3.8"/>
		</g>
		<g>
			<circle fill="#58595B" cx="124.5" cy="257.5" r="3.8"/>
		</g>
	</g>
	<g>
		<path fill="#58595B" d="M139.9,249.4l-0.6-0.4c-5.6-3.3-11.3-6.7-16.6-10.6l1.2-1.6c5.2,3.9,10.9,7.3,16.4,10.5l0.6,0.4
			L139.9,249.4z"/>
		<g>
			<circle fill="#58595B" cx="123.5" cy="237.7" r="3.8"/>
		</g>
		<g>
			<circle fill="#58595B" cx="140.3" cy="248.4" r="3.8"/>
		</g>
	</g>
	<g>
		<path fill="#58595B" d="M153,261.2c-0.7,0-1.4-0.1-2-0.2l0.3-2c3.8,0.6,8.1-1.1,12.2-3l0.9,1.8C160.6,259.6,156.7,261.2,153,261.2
			z"/>
		<g>
			<circle fill="#58595B" cx="151.3" cy="260.1" r="3.8"/>
		</g>
		<g>
			<circle fill="#58595B" cx="163.7" cy="257" r="3.8"/>
		</g>
	</g>
	<g>
		<path fill="#58595B" d="M172.4,252.9l-2-0.4c1-5.2,0.9-10.6-0.2-17.1l2-0.3C173.3,241.8,173.4,247.5,172.4,252.9z"/>
		<g>
			<circle fill="#58595B" cx="171.4" cy="252.5" r="3.8"/>
		</g>
		<g>
			<circle fill="#58595B" cx="171.2" cy="235.5" r="3.8"/>
		</g>
	</g>
	<g>
		<path fill="#58595B" d="M171.2,232c-1.2-3.7-3.6-8.8-6.3-11l1.3-1.6c3.1,2.5,5.6,7.8,7,11.9L171.2,232z"/>
		<g>
			<circle fill="#58595B" cx="165.7" cy="220.3" r="3.8"/>
		</g>
		<g>
			<circle fill="#58595B" cx="172.1" cy="231.5" r="3.8"/>
		</g>
	</g>
	<g>
		<path fill="#58595B" d="M163.3,215.3c-2.8-3.2-6-5.6-9.3-7.4l0.9-1.8c3.6,1.9,6.9,4.5,9.9,7.8L163.3,215.3z"/>
		<g>
			<circle fill="#58595B" cx="163.9" cy="214.5" r="3.8"/>
		</g>
		<g>
			<circle fill="#58595B" cx="154.6" cy="207.1" r="3.8"/>
		</g>
	</g>
	<g>
		<path fill="#58595B" d="M225.7,124.4c-0.8-6.5-1.2-14.7,2.7-21.2l1.7,1c-3.6,6-3.2,13.8-2.4,20L225.7,124.4z"/>
		<g>
			<circle fill="#58595B" cx="229.1" cy="103.8" r="3.8"/>
		</g>
		<g>
			<circle fill="#58595B" cx="226.7" cy="124" r="3.8"/>
		</g>
	</g>
	<g>
		<path fill="#58595B" d="M236.3,92.4l-1.9-0.6c1.8-5.4,7-10.4,11.4-14l1.3,1.5C242.9,82.8,237.9,87.5,236.3,92.4z"/>
		<g>
			<circle fill="#58595B" cx="235.4" cy="92" r="3.8"/>
		</g>
		<g>
			<circle fill="#58595B" cx="246.2" cy="78.7" r="3.8"/>
		</g>
	</g>
	<g>
		<path fill="#58595B" d="M257.8,67.2l-1.9-0.7c0.7-1.7,1.6-3.5,3-5.6l1.7,1.1C259.3,64,258.4,65.6,257.8,67.2z"/>
		<g>
			<circle fill="#58595B" cx="256.9" cy="66.7" r="3.8"/>
		</g>
		<g>
			<circle fill="#58595B" cx="259.6" cy="61.6" r="3.8"/>
		</g>
	</g>
	<g>
		<path fill="#58595B" d="M265.4,49.5l-1.5-1.3c3.5-3.9,8.4-5.1,13.6-6l0.4,2C272.9,45,268.6,46,265.4,49.5z"/>
		<g>
			<circle fill="#58595B" cx="264.8" cy="48.7" r="3.8"/>
		</g>
		<g>
			<circle fill="#58595B" cx="277.5" cy="43.1" r="3.8"/>
		</g>
	</g>
	<g>
		<path fill="#58595B" d="M254.2,76.3l-0.4-2c2.8-0.5,5.3-1,7.6-1.6l0.4,2C259.5,75.2,257,75.7,254.2,76.3z"/>
		<g>
			<circle fill="#58595B" cx="254.3" cy="75.2" r="3.8"/>
		</g>
		<g>
			<circle fill="#58595B" cx="261.5" cy="73.7" r="3.8"/>
		</g>
	</g>
	<g>
		<path fill="#58595B" d="M253.4,50.9c-0.8-6.4,0.6-13.4,4.1-20.1l1.8,0.9c-3.3,6.4-4.6,12.9-3.9,18.9L253.4,50.9z"/>
		<g>
			<circle fill="#58595B" cx="254.4" cy="50.6" r="3.8"/>
		</g>
		<g>
			<circle fill="#58595B" cx="258.3" cy="31.4" r="3.8"/>
		</g>
	</g>
	<g>
		<path fill="#58595B" d="M263.7,24.2l-1.4-1.5c3.2-2.9,9-4.3,17-4.2l0,2C271.8,20.4,266.5,21.7,263.7,24.2z"/>
		<g>
			<circle fill="#58595B" cx="263.2" cy="23.4" r="3.8"/>
		</g>
		<g>
			<circle fill="#58595B" cx="279.1" cy="19.6" r="3.8"/>
		</g>
	</g>
	<g>
		<path fill="#58595B" d="M244.3,26.2c-4.5-4.5-9.5-7.4-15.4-8.8l0.5-2c6.3,1.5,11.7,4.6,16.4,9.3L244.3,26.2z"/>
		<g>
			<circle fill="#58595B" cx="229.3" cy="16.4" r="3.8"/>
		</g>
		<g>
			<circle fill="#58595B" cx="244.9" cy="25.3" r="3.8"/>
		</g>
	</g>
	<g>
		<path fill="#58595B" d="M244.7,58.7c-2.3-2.6-6-5.9-8.7-8.1l1.3-1.5c2.7,2.3,6.5,5.6,8.9,8.3L244.7,58.7z"/>
		<g>
			<circle fill="#58595B" cx="245.3" cy="57.9" r="3.8"/>
		</g>
		<g>
			<circle fill="#58595B" cx="236.8" cy="50" r="3.8"/>
		</g>
	</g>
	<g>
		<path fill="#58595B" d="M288.8,21.6l-1.1-1.7c7.1-4.8,17.6-4.2,23.1-3.5l-0.3,2C305.2,17.7,295.4,17.2,288.8,21.6z"/>
		<g>
			<circle fill="#58595B" cx="288.4" cy="20.6" r="3.8"/>
		</g>
		<g>
			<circle fill="#58595B" cx="310.5" cy="17.4" r="3.8"/>
		</g>
	</g>
	<g>
		<path fill="#58595B" d="M294.4,68.6l-2-0.3c0.7-5.5,3.4-18.6,13.8-21.3l0.5,1.9C297.3,51.5,294.9,64.6,294.4,68.6z"/>
		<g>
			<circle fill="#58595B" cx="306.2" cy="48.1" r="3.8"/>
		</g>
		<g>
			<circle fill="#58595B" cx="293.4" cy="68.3" r="3.8"/>
		</g>
	</g>
	<g>
		<path fill="#58595B" d="M281.3,62.8c-2-1.7-4.3-3.3-6.5-5c-1.4-1-2.8-2-4-3l1.2-1.6c1.2,0.9,2.6,1.9,4,2.9c2.2,1.6,4.6,3.3,6.7,5
			L281.3,62.8z"/>
		<g>
			<circle fill="#58595B" cx="271.5" cy="54.2" r="3.8"/>
		</g>
		<g>
			<circle fill="#58595B" cx="281.8" cy="61.9" r="3.8"/>
		</g>
	</g>
	<g>
		<path fill="#58595B" d="M275.6,97.5l-1.7-1.1c0.6-0.9,1.1-1.8,1.7-2.7c4.4-6.9,9.4-14.8,16.2-19.1l1.1,1.7
			c-6.4,4.1-11.3,11.8-15.6,18.5C276.8,95.7,276.2,96.6,275.6,97.5z"/>
		<g>
			<circle fill="#58595B" cx="292.3" cy="75.5" r="3.8"/>
		</g>
		<g>
			<circle fill="#58595B" cx="274.9" cy="96.7" r="3.8"/>
		</g>
	</g>
	<g>
		<path fill="#58595B" d="M270.9,101.9c-1.5-3.3-4.9-6.1-9.4-7.7l0.7-1.9c4.9,1.8,8.8,5,10.5,8.7L270.9,101.9z"/>
		<g>
			<circle fill="#58595B" cx="271.8" cy="101.3" r="3.8"/>
		</g>
		<g>
			<circle fill="#58595B" cx="262.1" cy="93.4" r="3.8"/>
		</g>
	</g>
	<g>
		<path fill="#58595B" d="M265.2,132.1l-2-0.4c1.8-10.2,2.3-18.5,1.5-25.5l2-0.2C267.5,113.1,267,121.7,265.2,132.1z"/>
		<g>
			<circle fill="#58595B" cx="265.7" cy="106.2" r="3.8"/>
		</g>
		<g>
			<circle fill="#58595B" cx="264.2" cy="131.7" r="3.8"/>
		</g>
	</g>
	<g>
		<path fill="#58595B" d="M275.2,103.3l-1.6-1.3c3-3.8,9.1-7.2,14-9.9l1-0.5l1,1.8l-1,0.5C283.9,96.5,278,99.8,275.2,103.3z"/>
		<g>
			<circle fill="#58595B" cx="274.6" cy="102.5" r="3.8"/>
		</g>
		<g>
			<circle fill="#58595B" cx="288.9" cy="92.5" r="3.8"/>
		</g>
	</g>
	<g>
		<path fill="#58595B" d="M269.2,135.2c-0.2-5.3-1.2-10.3-2.1-15.2c-0.6-3.1-1.2-6.3-1.7-9.6l2-0.3c0.4,3.2,1,6.4,1.6,9.5
			c1,5,2,10.1,2.2,15.5L269.2,135.2z"/>
		<g>
			<circle fill="#58595B" cx="266.4" cy="110.5" r="3.8"/>
		</g>
		<g>
			<circle fill="#58595B" cx="270.2" cy="135" r="3.8"/>
		</g>
	</g>
	<g>
		<path fill="#58595B" d="M249.3,182.2l-1.3-1.5c3.2-2.7,5.6-6.1,8-9.4c1.8-2.5,3.6-5,5.7-7.2l1.4,1.4c-2,2.1-3.7,4.4-5.5,6.9
			C255.2,175.9,252.7,179.4,249.3,182.2z"/>
		<g>
			<circle fill="#58595B" cx="262.4" cy="165" r="3.8"/>
		</g>
		<g>
			<circle fill="#58595B" cx="248.8" cy="181.3" r="3.8"/>
		</g>
	</g>
	<g>
		<path fill="#58595B" d="M281.7,180.7c-4.5-1.9-10.8-5.2-15-10.1l1.5-1.3c3.9,4.6,9.9,7.7,14.2,9.5L281.7,180.7z"/>
		<g>
			<circle fill="#58595B" cx="267.7" cy="170.1" r="3.8"/>
		</g>
		<g>
			<circle fill="#58595B" cx="281.9" cy="179.6" r="3.8"/>
		</g>
	</g>
	<g>
		<path fill="#58595B" d="M292.5,181.6l-1.2-1.6c2.5-1.9,6.6-4.3,10.5-6.6c2.3-1.4,4.5-2.6,6.3-3.8l1.1,1.7c-1.8,1.1-4,2.4-6.4,3.8
			C299,177.4,294.9,179.7,292.5,181.6z"/>
		<g>
			<circle fill="#58595B" cx="292.1" cy="180.6" r="3.8"/>
		</g>
		<g>
			<circle fill="#58595B" cx="308.5" cy="170.5" r="3.8"/>
		</g>
	</g>
	<g>
		<path fill="#58595B" d="M312.2,132.1l-2-0.5c0.8-3.1,2.7-5.6,5.6-7.3c6.6-3.9,17-3,24-1.1l-0.5,1.9c-7.1-1.9-16.7-2.4-22.4,0.9
			C314.4,127.5,312.8,129.5,312.2,132.1z"/>
		<g>
			<circle fill="#58595B" cx="311.3" cy="131.7" r="3.8"/>
		</g>
		<g>
			<circle fill="#58595B" cx="339.3" cy="124.1" r="3.8"/>
		</g>
	</g>
	<g>
		<path fill="#58595B" d="M354.9,158.3l-2-0.4c1.9-8.6,2.3-15.5,1.5-22.2l2-0.3C357.3,142.4,356.8,149.5,354.9,158.3z"/>
		<g>
			<circle fill="#58595B" cx="355.4" cy="135.8" r="3.8"/>
		</g>
		<g>
			<circle fill="#58595B" cx="353.9" cy="157.9" r="3.8"/>
		</g>
	</g>
	<g>
		<path fill="#58595B" d="M359.7,166.5l-1.7-1c2.9-5,8.1-9.4,14.1-12l0.8,1.8C367.2,157.8,362.4,161.8,359.7,166.5z"/>
		<g>
			<circle fill="#58595B" cx="359" cy="165.8" r="3.8"/>
		</g>
		<g>
			<circle fill="#58595B" cx="372.3" cy="154.5" r="3.8"/>
		</g>
	</g>
	<g>
		<path fill="#58595B" d="M352.2,140.3c-0.4-6.7-5-13.3-11.5-16.9l1-1.8c7.2,3.9,12.1,11.2,12.6,18.6L352.2,140.3z"/>
		<g>
			<circle fill="#58595B" cx="353.2" cy="140.1" r="3.8"/>
		</g>
		<g>
			<circle fill="#58595B" cx="341.3" cy="122.6" r="3.8"/>
		</g>
	</g>
	<g>
		<path fill="#58595B" d="M310.2,111.6c-0.2-4,0.8-8,2.6-11l1.7,1c-1.6,2.8-2.5,6.3-2.3,9.9L310.2,111.6z"/>
		<g>
			<circle fill="#58595B" cx="313.6" cy="101.3" r="3.8"/>
		</g>
		<g>
			<circle fill="#58595B" cx="311.2" cy="111.4" r="3.8"/>
		</g>
	</g>
	<g>
		<path fill="#58595B" d="M314.5,100l-1.9-0.6c1.2-3.7,5.3-6.2,12.3-7.5l0.4,2C320.9,94.6,315.7,96.4,314.5,100z"/>
		<g>
			<circle fill="#58595B" cx="313.6" cy="99.5" r="3.8"/>
		</g>
		<g>
			<circle fill="#58595B" cx="324.8" cy="92.9" r="3.8"/>
		</g>
	</g>
	<g>
		<path fill="#58595B" d="M314.5,128.2c-3.5-10.1-3.5-17.2,0.2-21l1.5,1.4c-3,3.2-2.9,9.8,0.3,19L314.5,128.2z"/>
		<g>
			<circle fill="#58595B" cx="315.3" cy="108" r="3.8"/>
		</g>
		<g>
			<circle fill="#58595B" cx="315.4" cy="127.6" r="3.8"/>
		</g>
	</g>
	<g>
		<path fill="#58595B" d="M355.5,130.4l-1.2-1.6c1.5-1.2,3.2-2.2,4.8-3.2c3.8-2.3,7.3-4.5,9.5-8.5l1.8,1c-2.4,4.5-6.4,6.9-10.2,9.3
			C358.6,128.3,357,129.3,355.5,130.4z"/>
		<g>
			<circle fill="#58595B" cx="355.1" cy="129.5" r="3.8"/>
		</g>
		<g>
			<circle fill="#58595B" cx="369.3" cy="117.8" r="3.8"/>
		</g>
	</g>
	<g>
		<path fill="#58595B" d="M362.1,100.1c-4.7-6.2-11.9-12-21.5-17.1l0.9-1.8c9.8,5.2,17.3,11.2,22.1,17.6L362.1,100.1z"/>
		<g>
			<circle fill="#58595B" cx="341.2" cy="82.2" r="3.8"/>
		</g>
		<g>
			<circle fill="#58595B" cx="362.7" cy="99.3" r="3.8"/>
		</g>
	</g>
	<g>
		<path fill="#58595B" d="M366.2,112.6c-0.4-1.9-1.1-3.6-2.2-5.2l1.6-1.2c1.3,1.8,2.1,3.8,2.6,5.9L366.2,112.6z"/>
		<g>
			<circle fill="#58595B" cx="364.9" cy="107" r="3.8"/>
		</g>
		<g>
			<circle fill="#58595B" cx="367.1" cy="112.2" r="3.8"/>
		</g>
	</g>
	<g>
		<path fill="#58595B" d="M370,119.5l-1.4-1.4c5.6-5.8,18.6-4.9,25.9-3.8l-0.3,2C388.6,115.5,375.2,114.2,370,119.5z"/>
		<g>
			<circle fill="#58595B" cx="369.4" cy="118.7" r="3.8"/>
		</g>
		<g>
			<circle fill="#58595B" cx="394.1" cy="115.3" r="3.8"/>
		</g>
	</g>
	<g>
		<path fill="#58595B" d="M412.2,128c-1.5-4.9-4.6-8.9-9-11.3l1-1.8c4.9,2.7,8.3,7,10,12.5L412.2,128z"/>
		<g>
			<circle fill="#58595B" cx="403.8" cy="115.9" r="3.8"/>
		</g>
		<g>
			<circle fill="#58595B" cx="413.1" cy="127.5" r="3.8"/>
		</g>
	</g>
	<g>
		<path fill="#58595B" d="M415.4,142.3c-0.9-3.7-1.8-7.6-2.6-11.6l2-0.4c0.8,4,1.7,7.9,2.6,11.5L415.4,142.3z"/>
		<g>
			<circle fill="#58595B" cx="416.4" cy="141.9" r="3.8"/>
		</g>
		<g>
			<circle fill="#58595B" cx="413.8" cy="130.7" r="3.8"/>
		</g>
	</g>
	<g>
		<path fill="#58595B" d="M299.8,70.7l-1-1.7c6.2-3.6,15-4,18.6-4l0,2C314,67,305.5,67.3,299.8,70.7z"/>
		<g>
			<circle fill="#58595B" cx="299.5" cy="69.8" r="3.8"/>
		</g>
		<g>
			<circle fill="#58595B" cx="317.2" cy="66" r="3.8"/>
		</g>
	</g>
	<g>
		<path fill="#58595B" d="M352.9,75.2c-8-4.6-18.4-7.6-30.1-8.7l0.2-2c12,1.1,22.7,4.2,31,8.9L352.9,75.2z"/>
		<g>
			<circle fill="#58595B" cx="323" cy="65.6" r="3.8"/>
		</g>
		<g>
			<circle fill="#58595B" cx="353.2" cy="74.3" r="3.8"/>
		</g>
	</g>
	<g>
		<path fill="#58595B" d="M364.8,86.6c-3.8-3.2-7.5-6.6-11-10l-0.5-0.5l1.4-1.5l0.5,0.5c3.5,3.3,7.2,6.8,10.9,9.9L364.8,86.6z"/>
		<g>
			<circle fill="#58595B" cx="354.1" cy="75.5" r="3.8"/>
		</g>
		<g>
			<circle fill="#58595B" cx="365.3" cy="85.7" r="3.8"/>
		</g>
	</g>
	<g>
		<path fill="#58595B" d="M380.6,83.2c-5.7-1.5-14.1-4.2-19-6.6l0.9-1.8c4.7,2.3,13,5,18.6,6.5L380.6,83.2z"/>
		<g>
			<circle fill="#58595B" cx="362.2" cy="75.7" r="3.8"/>
		</g>
		<g>
			<circle fill="#58595B" cx="380.7" cy="82.1" r="3.8"/>
		</g>
	</g>
	<g>
		<path fill="#58595B" d="M384.5,79.7l-1.7-1.1c1.5-2.2,3.2-4.2,4.9-6.2c0.7-0.8,1.4-1.6,2-2.4l1.5,1.3c-0.7,0.8-1.4,1.6-2.1,2.4
			C387.6,75.6,385.9,77.6,384.5,79.7z"/>
		<g>
			<circle fill="#58595B" cx="383.8" cy="78.9" r="3.8"/>
		</g>
		<g>
			<circle fill="#58595B" cx="390.4" cy="70.8" r="3.8"/>
		</g>
	</g>
	<g>
		<path fill="#58595B" d="M408.5,105.2c-4.9-6.1-11.7-9.8-18.3-13.4c-3.4-1.9-6.7-3.7-9.5-5.7l1.2-1.6c2.7,2,5.9,3.7,9.3,5.6
			c6.5,3.5,13.8,7.6,18.9,13.9L408.5,105.2z"/>
		<g>
			<circle fill="#58595B" cx="381.4" cy="85.4" r="3.8"/>
		</g>
		<g>
			<circle fill="#58595B" cx="409.1" cy="104.5" r="3.8"/>
		</g>
	</g>
	<g>
		<path fill="#58595B" d="M343.5,47.6c-1.3-0.7-2.7-1.5-4-2.2c-11.2-6.3-20.9-11.8-29.2-1.1l-1.6-1.2c9.4-12.1,20.8-5.7,31.8,0.5
			c1.3,0.7,2.6,1.5,3.9,2.2L343.5,47.6z"/>
		<g>
			<circle fill="#58595B" cx="309.6" cy="43.6" r="3.8"/>
		</g>
		<g>
			<circle fill="#58595B" cx="343.8" cy="46.6" r="3.8"/>
		</g>
	</g>
	<g>
		<path fill="#58595B" d="M361.2,58c-6.4-1.3-15.3-3-21.2-7.2l1.2-1.6c5.6,4,14.1,5.7,20.4,6.9L361.2,58z"/>
		<g>
			<circle fill="#58595B" cx="340.7" cy="50" r="3.8"/>
		</g>
		<g>
			<circle fill="#58595B" cx="361.2" cy="56.9" r="3.8"/>
		</g>
	</g>
	<g>
		<path fill="#58595B" d="M371.3,48.9c-1.7-0.2-3.4-0.4-5.1-0.5c-7.1-0.7-14.5-1.4-21.1-3.7l0.6-1.9c6.4,2.2,13.7,2.9,20.7,3.6
			c1.7,0.2,3.4,0.3,5.1,0.5L371.3,48.9z"/>
		<g>
			<circle fill="#58595B" cx="345.6" cy="43.8" r="3.8"/>
		</g>
		<g>
			<circle fill="#58595B" cx="371.3" cy="48" r="3.8"/>
		</g>
	</g>
	<g>
		<path fill="#58595B" d="M334.7,41l-1.5-1.3c2.8-3.1,4-8.8,3-13.8l2-0.4C339.1,30,338.4,36.9,334.7,41z"/>
		<g>
			<circle fill="#58595B" cx="334.1" cy="40.1" r="3.8"/>
		</g>
		<g>
			<circle fill="#58595B" cx="337.3" cy="25.8" r="3.8"/>
		</g>
	</g>
	<g>
		<path fill="#58595B" d="M422.1,89.6l-0.7-0.4c-4.8-2.9-12.2-7.2-15.4-10.6l1.5-1.4c3,3.2,10.2,7.4,15,10.3l0.7,0.4L422.1,89.6z"/>
		<g>
			<circle fill="#58595B" cx="406.9" cy="78.1" r="3.8"/>
		</g>
		<g>
			<circle fill="#58595B" cx="422.5" cy="88.7" r="3.8"/>
		</g>
	</g>
	<g>
		<path fill="#58595B" d="M430.6,117.8c-4.2-5.8-13.3-14.7-20.1-16l0.4-2c7.3,1.5,16.9,10.7,21.3,16.8L430.6,117.8z"/>
		<g>
			<circle fill="#58595B" cx="410.9" cy="100.8" r="3.8"/>
		</g>
		<g>
			<circle fill="#58595B" cx="431.3" cy="117" r="3.8"/>
		</g>
	</g>
	<g>
		<path fill="#58595B" d="M438.9,123c-4.5-0.9-9.1-1.6-13.5-2.4c-5.5-0.9-11.1-1.9-16.6-3l0.4-2c5.5,1.1,11.1,2,16.5,3
			c4.5,0.7,9.1,1.5,13.6,2.4L438.9,123z"/>
		<g>
			<circle fill="#58595B" cx="409.2" cy="116.7" r="3.8"/>
		</g>
		<g>
			<circle fill="#58595B" cx="438.9" cy="122.1" r="3.8"/>
		</g>
	</g>
	<g>
		<path fill="#58595B" d="M463.9,160.8c-1.5-6.5-5.6-13.7-10.9-19.4l1.5-1.4c5.5,5.9,9.8,13.5,11.4,20.3L463.9,160.8z"/>
		<g>
			<circle fill="#58595B" cx="453.8" cy="140.9" r="3.8"/>
		</g>
		<g>
			<circle fill="#58595B" cx="464.8" cy="160.4" r="3.8"/>
		</g>
	</g>
	<g>
		<path fill="#58595B" d="M452,175.9c-3.7-3.7-8-8.6-8.7-14.8l2-0.2c0.7,5.5,4.7,10.2,8.1,13.6L452,175.9z"/>
		<g>
			<circle fill="#58595B" cx="444.3" cy="161.2" r="3.8"/>
		</g>
		<g>
			<circle fill="#58595B" cx="452.6" cy="175" r="3.8"/>
		</g>
	</g>
	<g>
		<path fill="#58595B" d="M432,185.6l-0.5-1.4c-1.9-5.7-4.1-12.2-8.4-15.7l1.3-1.6c4.8,3.9,7.1,10.6,9.1,16.6l0.5,1.4L432,185.6z"/>
		<g>
			<circle fill="#58595B" cx="423.9" cy="167.8" r="3.8"/>
		</g>
		<g>
			<circle fill="#58595B" cx="432.9" cy="185.1" r="3.8"/>
		</g>
	</g>
	<g>
		<path fill="#58595B" d="M363.7,202.6l-1.5-1.3c2.7-3.2,5.5-6.3,8.3-9.3c4.3-4.7,8.7-9.5,12.6-14.6l1.6,1.2
			c-4,5.2-8.4,10-12.7,14.7C369.2,196.4,366.4,199.5,363.7,202.6z"/>
		<g>
			<circle fill="#58595B" cx="383.7" cy="178.1" r="3.8"/>
		</g>
		<g>
			<circle fill="#58595B" cx="363.1" cy="201.8" r="3.8"/>
		</g>
	</g>
	<g>
		<path fill="#58595B" d="M380.3,220.8l-1.6-1.2c3.9-5.4,9.2-8.9,14.7-12.3l1,1.7C389.1,212.4,384,215.7,380.3,220.8z"/>
		<g>
			<circle fill="#58595B" cx="379.6" cy="220.1" r="3.8"/>
		</g>
		<g>
			<circle fill="#58595B" cx="393.8" cy="208.4" r="3.8"/>
		</g>
	</g>
	<g>
		<path fill="#58595B" d="M421.6,210.9l-1.3-1.6c5-4.1,8.7-8.7,9.8-12.4l1.9,0.6C430.2,203.4,424.2,208.9,421.6,210.9z"/>
		<g>
			<circle fill="#58595B" cx="431.1" cy="197.5" r="3.8"/>
		</g>
		<g>
			<circle fill="#58595B" cx="421.1" cy="210" r="3.8"/>
		</g>
	</g>
	<g>
		<path fill="#58595B" d="M404.1,223.4l-1-1.8c3.7-2.1,6.8-4.2,9.3-6.6l1.4,1.5C411.1,219,407.9,221.2,404.1,223.4z"/>
		<g>
			<circle fill="#58595B" cx="412.9" cy="215.9" r="3.8"/>
		</g>
		<g>
			<circle fill="#58595B" cx="403.7" cy="222.4" r="3.8"/>
		</g>
	</g>
	<g>
		<path fill="#58595B" d="M398.2,222.7l-0.9-1.8c2.1-1.1,4.2-2.5,6.2-3.9c1.6-1.1,3.3-2.2,5-3.2l1,1.7c-1.7,1-3.3,2-4.9,3.1
			C402.6,220.1,400.5,221.6,398.2,222.7z"/>
		<g>
			<circle fill="#58595B" cx="397.9" cy="221.7" r="3.8"/>
		</g>
		<g>
			<circle fill="#58595B" cx="408.8" cy="214.9" r="3.8"/>
		</g>
	</g>
	<g>
		<path fill="#58595B" d="M378.2,255.9l-1.5-1.3c6.6-7.6,12.5-15.3,12.7-24.7l-0.5-0.2c0.2-0.5,0.4-0.9,0.6-1.4l1.8-4.2l0.2,4.5
			C391.7,239.3,385,247.9,378.2,255.9z"/>
		<g>
			<circle fill="#58595B" cx="389.8" cy="229.9" r="3.8"/>
		</g>
		<g>
			<circle fill="#58595B" cx="377.5" cy="255.1" r="3.8"/>
		</g>
	</g>
	<g>
		<path fill="#58595B" d="M422.8,240.3c-1.1-1.8-2.3-3.7-3.4-5.6c-1.9-3.3-3.9-6.7-6.1-9.3l1.6-1.3c2.3,2.8,4.3,6.2,6.3,9.6
			c1.1,2,2.2,3.8,3.4,5.5L422.8,240.3z"/>
		<g>
			<circle fill="#58595B" cx="414.2" cy="225" r="3.8"/>
		</g>
		<g>
			<circle fill="#58595B" cx="423.5" cy="239.6" r="3.8"/>
		</g>
	</g>
	<g>
		<path fill="#58595B" d="M427.2,262c-0.1-9.3-0.8-16.2-2.3-23.2l2-0.4c1.5,7.1,2.2,14.1,2.4,23.6L427.2,262z"/>
		<g>
			<circle fill="#58595B" cx="425.8" cy="238.8" r="3.8"/>
		</g>
		<g>
			<circle fill="#58595B" cx="428.2" cy="261.8" r="3.8"/>
		</g>
	</g>
	<g>
		<path fill="#58595B" d="M423.5,286l-1.9-0.6c1.6-5.3,3.1-9.3,5-13l1.8,0.9C426.5,277,425,280.9,423.5,286z"/>
		<g>
			<circle fill="#58595B" cx="427.3" cy="273.1" r="3.8"/>
		</g>
		<g>
			<circle fill="#58595B" cx="422.6" cy="285.6" r="3.8"/>
		</g>
	</g>
	<g>
		<path fill="#58595B" d="M406.1,278.7l-0.8-0.5c-3.2-2.2-6.6-4.4-9.7-6.9l1.3-1.6c3,2.4,6.3,4.7,9.5,6.8l0.8,0.5L406.1,278.7z"/>
		<g>
			<circle fill="#58595B" cx="396.5" cy="270.5" r="3.8"/>
		</g>
		<g>
			<circle fill="#58595B" cx="406.5" cy="277.8" r="3.8"/>
		</g>
	</g>
	<g>
		<path fill="#58595B" d="M445.8,253.9c-5.8,0-11.7-0.3-16.5-2.5l0.8-1.8c4.4,2,10.2,2.3,15.7,2.3c0,0,0,0,0,0L445.8,253.9
			C445.8,253.9,445.8,253.9,445.8,253.9z"/>
		<g>
			<circle fill="#58595B" cx="429.8" cy="250.6" r="3.8"/>
		</g>
		<g>
			<circle fill="#58595B" cx="445.6" cy="252.9" r="3.8"/>
		</g>
	</g>
	<g>
		<path fill="#58595B" d="M447.2,251l-0.3-2c3.6-0.5,7.2-1.5,10.7-3.1l0.8,1.8C454.7,249.4,451,250.5,447.2,251z"/>
		<g>
			<circle fill="#58595B" cx="447.2" cy="250" r="3.8"/>
		</g>
		<g>
			<circle fill="#58595B" cx="457.8" cy="246.9" r="3.8"/>
		</g>
	</g>
	<g>
		<path fill="#58595B" d="M463.3,245.1l-0.7-1.9c0.8-0.3,1.7-0.6,2.5-0.9l0.7,1.9C465,244.5,464.1,244.8,463.3,245.1z"/>
		<g>
			<circle fill="#58595B" cx="463.1" cy="244.1" r="3.8"/>
		</g>
		<g>
			<circle fill="#58595B" cx="465.3" cy="243.3" r="3.8"/>
		</g>
	</g>
	<g>
		<path fill="#58595B" d="M454.2,269.2c-1.2-3.7-2.6-7.3-4-10.8c-0.5-1.1-0.9-2.3-1.4-3.4l1.9-0.7c0.4,1.1,0.9,2.3,1.4,3.4
			c1.4,3.5,2.9,7.2,4.1,10.9L454.2,269.2z"/>
		<g>
			<circle fill="#58595B" cx="449.9" cy="254.7" r="3.8"/>
		</g>
		<g>
			<circle fill="#58595B" cx="455" cy="268.7" r="3.8"/>
		</g>
	</g>
	<g>
		<path fill="#58595B" d="M457,284l-1.8-1c1-1.9,2-3.5,3-5l1.7,1.1C459,280.5,458,282.1,457,284z"/>
		<g>
			<circle fill="#58595B" cx="459" cy="278.7" r="3.8"/>
		</g>
		<g>
			<circle fill="#58595B" cx="456.3" cy="283.3" r="3.8"/>
		</g>
	</g>
	<g>
		<path fill="#58595B" d="M450,298.4l-1.3-1.5c2.1-1.9,4.8-3.9,7.6-6c2.6-1.9,5.2-4,7.5-5.9l1.3,1.5c-2.3,2-5,4-7.6,5.9
			C454.7,294.6,452.1,296.6,450,298.4z"/>
		<g>
			<circle fill="#58595B" cx="449.5" cy="297.5" r="3.8"/>
		</g>
		<g>
			<circle fill="#58595B" cx="464.3" cy="285.8" r="3.8"/>
		</g>
	</g>
	<g>
		<path fill="#58595B" d="M464.1,285.9l-1-1.7c1.8-1,3.5-2.1,4.8-3l1.1,1.7C467.6,283.6,465.9,284.8,464.1,285.9z"/>
		<g>
			<circle fill="#58595B" cx="463.7" cy="284.9" r="3.8"/>
		</g>
		<g>
			<circle fill="#58595B" cx="468.2" cy="282" r="3.8"/>
		</g>
	</g>
	<g>
		<path fill="#58595B" d="M480.9,270.7l-1.6-1.2c2.1-2.6,4.7-4.7,7.3-6.8l0.9-0.7l1.3,1.6l-0.9,0.7
			C485.3,266.2,482.8,268.3,480.9,270.7z"/>
		<g>
			<circle fill="#58595B" cx="480.2" cy="270" r="3.8"/>
		</g>
		<g>
			<circle fill="#58595B" cx="487.9" cy="262.9" r="3.8"/>
		</g>
	</g>
	<g>
		<path fill="#58595B" d="M473.8,290.3c-1.5-1.2-3.2-2.5-4.7-4l1.4-1.5c1.5,1.4,3.1,2.7,4.6,3.9L473.8,290.3z"/>
		<g>
			<circle fill="#58595B" cx="470" cy="285.7" r="3.8"/>
		</g>
		<g>
			<circle fill="#58595B" cx="474.3" cy="289.3" r="3.8"/>
		</g>
	</g>
	<g>
		<path fill="#58595B" d="M475.2,295.3c-0.1-0.2-0.3-0.5-0.4-0.7l1.7-1c0.1,0.2,0.3,0.4,0.4,0.6L475.2,295.3z"/>
		<g>
			<circle fill="#58595B" cx="475.7" cy="294.2" r="3.8"/>
		</g>
		<g>
			<circle fill="#58595B" cx="475.9" cy="294.6" r="3.8"/>
		</g>
	</g>
	<g>
		<path fill="#58595B" d="M454.8,307.8c-0.6-2.7-1.7-5.2-2.8-7.9c-0.5-1.2-1-2.3-1.5-3.5l1.9-0.7c0.5,1.2,1,2.3,1.5,3.5
			c1.2,2.7,2.4,5.4,3,8.3L454.8,307.8z"/>
		<g>
			<circle fill="#58595B" cx="451.5" cy="296.2" r="3.8"/>
		</g>
		<g>
			<circle fill="#58595B" cx="455.7" cy="307.4" r="3.8"/>
		</g>
	</g>
	<g>
		<path fill="#58595B" d="M453.6,313.8c-0.5-2.2-1.1-4.5-1-6.8l2,0.1c-0.1,2,0.4,4.1,0.9,6.2L453.6,313.8z"/>
		<g>
			<circle fill="#58595B" cx="453.6" cy="307.3" r="3.8"/>
		</g>
		<g>
			<circle fill="#58595B" cx="454.5" cy="313.4" r="3.8"/>
		</g>
	</g>
	<g>
		<path fill="#58595B" d="M416.7,297.6l-2-0.1c0-0.3,0.1-0.6,0.1-0.9l2,0.4C416.7,297.1,416.7,297.3,416.7,297.6z"/>
		<g>
			<circle fill="#58595B" cx="415.7" cy="296.9" r="3.8"/>
		</g>
		<g>
			<circle fill="#58595B" cx="415.7" cy="297.3" r="3.8"/>
		</g>
	</g>
	<g>
		<path fill="#58595B" d="M488.7,244.6l-0.8-1c-3.3-4.5-7.9-10.6-9.9-14.6l1.8-0.9c2,3.8,6.5,9.9,9.7,14.4l0.8,1L488.7,244.6z"/>
		<g>
			<circle fill="#58595B" cx="479" cy="228.7" r="3.8"/>
		</g>
		<g>
			<circle fill="#58595B" cx="489.4" cy="243.9" r="3.8"/>
		</g>
	</g>
	<g>
		<path fill="#58595B" d="M492.9,249.8c-1.1-3.4-2.1-7.1-3.1-11.8l2-0.4c1,4.6,2,8.3,3.1,11.6L492.9,249.8z"/>
		<g>
			<circle fill="#58595B" cx="490.8" cy="238" r="3.8"/>
		</g>
		<g>
			<circle fill="#58595B" cx="493.8" cy="249.3" r="3.8"/>
		</g>
	</g>
	<g>
		<path fill="#58595B" d="M476,218.9l-2-0.2c0.3-3.5,0.9-6.9,1.5-10.3c0.7-3.9,1.4-8,1.6-12.1l2,0.1c-0.2,4.1-0.9,8.3-1.6,12.3
			C476.8,212.1,476.3,215.6,476,218.9z"/>
		<g>
			<circle fill="#58595B" cx="475" cy="218.7" r="3.8"/>
		</g>
		<g>
			<circle fill="#58595B" cx="478" cy="196.7" r="3.8"/>
		</g>
	</g>
	<g>
		<path fill="#58595B" d="M473.9,188.5c-1.2-2-2.6-4-4.2-5.9l1.5-1.3c1.7,1.9,3.2,4,4.4,6.2L473.9,188.5z"/>
		<g>
			<circle fill="#58595B" cx="474.7" cy="187.8" r="3.8"/>
		</g>
		<g>
			<circle fill="#58595B" cx="470.6" cy="182.1" r="3.8"/>
		</g>
	</g>
	<g>
		<path fill="#58595B" d="M460.6,187.4c-1.4-3.1-3.1-6.3-4.5-8.3l1.7-1.1c1.4,2.1,3.2,5.3,4.7,8.6L460.6,187.4z"/>
		<g>
			<circle fill="#58595B" cx="457.1" cy="178.7" r="3.8"/>
		</g>
		<g>
			<circle fill="#58595B" cx="461.4" cy="186.8" r="3.8"/>
		</g>
	</g>
	<g>
		<path fill="#58595B" d="M453,214.2l-1.9-0.6c1.6-5.2,5.3-15.1,8.8-19.5l1.6,1.3C458.6,199,455,207.7,453,214.2z"/>
		<g>
			<circle fill="#58595B" cx="460.6" cy="194.9" r="3.8"/>
		</g>
		<g>
			<circle fill="#58595B" cx="452.1" cy="213.7" r="3.8"/>
		</g>
	</g>
	<g>
		<path fill="#58595B" d="M462,225.3c-3.9-3.2-7.3-6.5-10.3-10.3l1.6-1.3c2.9,3.7,6.2,6.9,10,10L462,225.3z"/>
		<g>
			<circle fill="#58595B" cx="452.6" cy="214.4" r="3.8"/>
		</g>
		<g>
			<circle fill="#58595B" cx="462.5" cy="224.3" r="3.8"/>
		</g>
	</g>
	<g>
		<path fill="#58595B" d="M456.9,141.3l-2-0.3c0.6-4.6,0.2-8.5-1.3-11.8l-1-0.1c0-0.7,0.1-1.4,0.1-2l0.3-3.1l1.6,2.7
			C456.9,130.7,457.7,135.6,456.9,141.3z"/>
		<g>
			<circle fill="#58595B" cx="453.6" cy="129.1" r="3.8"/>
		</g>
		<g>
			<circle fill="#58595B" cx="455.9" cy="141" r="3.8"/>
		</g>
	</g>
	<g>
		<path fill="#58595B" d="M357.2,222.3l-1.4-1.4l1.4-1.4c5.1-5.2,10.4-10.6,16.1-15.1l1.3,1.6c-5.6,4.4-10.8,9.7-15.9,14.9
			L357.2,222.3z"/>
		<g>
			<circle fill="#58595B" cx="373.7" cy="205.3" r="3.8"/>
		</g>
		<g>
			<circle fill="#58595B" cx="356.6" cy="221.5" r="3.8"/>
		</g>
	</g>
	<g>
		<path fill="#58595B" d="M308.7,260.1l-0.4-2c5.4-1.1,10.9-3.4,16.2-5.7c2-0.9,4.2-1.8,6.2-2.6l0.7,1.9c-2,0.8-4.1,1.7-6.2,2.6
			C319.9,256.6,314.3,259,308.7,260.1z"/>
		<g>
			<circle fill="#58595B" cx="308.6" cy="259.1" r="3.8"/>
		</g>
		<g>
			<circle fill="#58595B" cx="330.9" cy="250.9" r="3.8"/>
		</g>
	</g>
	<g>
		<path fill="#58595B" d="M328.7,234l-1.1-1.7c8.2-5.3,16.7-11.1,23.9-18.1l1.4,1.4C345.7,222.7,337,228.6,328.7,234z"/>
		<g>
			<circle fill="#58595B" cx="352.1" cy="215" r="3.8"/>
		</g>
		<g>
			<circle fill="#58595B" cx="328.3" cy="233" r="3.8"/>
		</g>
	</g>
	<g>
		<path fill="#58595B" d="M214.6,278l-0.9-1.8c7.3-3.9,18.1-5.4,27.7-6.7c3.9-0.5,7.5-1,10.8-1.7l0.4,2c-3.3,0.6-7,1.2-10.9,1.7
			C232.3,272.8,221.6,274.3,214.6,278z"/>
		<g>
			<circle fill="#58595B" cx="214.3" cy="277.1" r="3.8"/>
		</g>
		<g>
			<circle fill="#58595B" cx="252.2" cy="268.8" r="3.8"/>
		</g>
	</g>
	<g>
		<path fill="#58595B" d="M283.3,264.2l-0.4-2c2.1-0.5,4.3-1,6.5-1.6c5-1.3,10.2-2.6,15.3-2.9l0.1,2c-4.9,0.2-10,1.5-14.9,2.8
			C287.7,263.1,285.5,263.7,283.3,264.2z"/>
		<g>
			<circle fill="#58595B" cx="304.5" cy="258.8" r="3.8"/>
		</g>
		<g>
			<circle fill="#58595B" cx="283.3" cy="263.1" r="3.8"/>
		</g>
	</g>
	<g>
		<path fill="#58595B" d="M253.7,250.6l-0.4-2c12.4-2.6,24.2-6.1,35.2-10.5l0.8,1.9C278.2,244.5,266.2,248,253.7,250.6z"/>
		<g>
			<circle fill="#58595B" cx="253.7" cy="249.5" r="3.8"/>
		</g>
		<g>
			<circle fill="#58595B" cx="288.7" cy="239" r="3.8"/>
		</g>
	</g>
	<g>
		<path fill="#58595B" d="M292.6,240.8l-0.7-1.9c5.8-2.1,10.4-4.1,14.5-6.3l0.9,1.8C303.1,236.6,298.5,238.6,292.6,240.8z"/>
		<g>
			<circle fill="#58595B" cx="306.6" cy="233.6" r="3.8"/>
		</g>
		<g>
			<circle fill="#58595B" cx="292.4" cy="239.7" r="3.8"/>
		</g>
	</g>
	<g>
		<path fill="#58595B" d="M233.1,256.7c-2.5,0-5.3-0.2-8.4-0.6l0.3-2c5.3,0.7,9.5,0.8,12.9,0.3l0.3,2
			C236.6,256.6,235,256.7,233.1,256.7z"/>
		<g>
			<circle fill="#58595B" cx="237.8" cy="255.4" r="3.8"/>
		</g>
		<g>
			<circle fill="#58595B" cx="225" cy="255.1" r="3.8"/>
		</g>
	</g>
	<g>
		<path fill="#58595B" d="M193.8,258.1c-7-1.7-12.3-3.7-16.7-6.6l1.1-1.7c4.2,2.7,9.3,4.7,16.1,6.3L193.8,258.1z"/>
		<g>
			<circle fill="#58595B" cx="177.9" cy="250.8" r="3.8"/>
		</g>
		<g>
			<circle fill="#58595B" cx="193.9" cy="257.1" r="3.8"/>
		</g>
	</g>
	<g>
		<path fill="#58595B" d="M209.9,265.8c-2.7,0-4.7-0.2-6.6-0.7l0.5-2c2,0.5,4.2,0.7,7.1,0.6l0,2
			C210.6,265.8,210.2,265.8,209.9,265.8z"/>
		<g>
			<circle fill="#58595B" cx="203.7" cy="264.2" r="3.8"/>
		</g>
		<g>
			<circle fill="#58595B" cx="210.7" cy="264.8" r="3.8"/>
		</g>
	</g>
	<g>
		<path fill="#58595B" d="M211.3,246.9c-7.7,0-14.6-1.6-17.1-7l1.8-0.9c3.4,7.1,17.3,6.2,27.5,4.9l0.3,2
			C219.7,246.4,215.4,246.9,211.3,246.9z"/>
		<g>
			<circle fill="#58595B" cx="195.1" cy="239.6" r="3.8"/>
		</g>
		<g>
			<circle fill="#58595B" cx="223.4" cy="244.9" r="3.8"/>
		</g>
	</g>
	<g>
		<path fill="#58595B" d="M238.4,247.7l-1.1-1.7c8.2-5.3,12.2-12.2,12.5-21.6l2,0.1C251.5,234.6,247.2,242,238.4,247.7z"/>
		<g>
			<circle fill="#58595B" cx="250.8" cy="224.5" r="3.8"/>
		</g>
		<g>
			<circle fill="#58595B" cx="238" cy="246.7" r="3.8"/>
		</g>
	</g>
	<g>
		<path fill="#58595B" d="M261.4,240.6c-7.4,0-14.1-1.9-17.7-8.4l1.8-1c5.9,10.8,22.4,7.3,34.5,4.7l1-0.2l0.4,2l-1,0.2
			C274.8,239.1,267.8,240.6,261.4,240.6z"/>
		<g>
			<circle fill="#58595B" cx="244.7" cy="231.9" r="3.8"/>
		</g>
		<g>
			<circle fill="#58595B" cx="280.9" cy="236.7" r="3.8"/>
		</g>
	</g>
	<g>
		<path fill="#58595B" d="M295.9,231l-1-1.8c5.1-2.8,8.6-5.8,10.8-9.2l1.7,1.1C305.1,224.8,301.3,228.1,295.9,231z"/>
		<g>
			<circle fill="#58595B" cx="295.6" cy="230" r="3.8"/>
		</g>
		<g>
			<circle fill="#58595B" cx="306.5" cy="220.7" r="3.8"/>
		</g>
	</g>
	<g>
		<path fill="#58595B" d="M307.3,205.4c-1-1.7-1.8-3-2.6-4.1l1.6-1.2c0.9,1.2,1.8,2.6,2.8,4.3L307.3,205.4z"/>
		<g>
			<circle fill="#58595B" cx="308.1" cy="204.8" r="3.8"/>
		</g>
		<g>
			<circle fill="#58595B" cx="305.6" cy="200.9" r="3.8"/>
		</g>
	</g>
	<g>
		<path fill="#58595B" d="M281.6,190.7l-0.4-2c5.6-1.1,12.6-2.5,17.7-0.4l-0.8,1.9C293.6,188.3,286.9,189.6,281.6,190.7z"/>
		<g>
			<circle fill="#58595B" cx="298.3" cy="189.2" r="3.8"/>
		</g>
		<g>
			<circle fill="#58595B" cx="281.6" cy="189.6" r="3.8"/>
		</g>
	</g>
	<g>
		<path fill="#58595B" d="M242.3,204l-1.2-1.6c2-1.4,4.1-2.6,6-3.7l1,1.8C246.2,201.5,244.2,202.7,242.3,204z"/>
		<g>
			<circle fill="#58595B" cx="247.5" cy="199.8" r="3.8"/>
		</g>
		<g>
			<circle fill="#58595B" cx="241.9" cy="203.1" r="3.8"/>
		</g>
	</g>
	<g>
		<path fill="#58595B" d="M218.8,216.6l-2-0.4c1.3-5.9,3.3-11.7,8.2-14.5l1,1.8C221.7,205.9,220,211.2,218.8,216.6z"/>
		<g>
			<circle fill="#58595B" cx="225.3" cy="202.7" r="3.8"/>
		</g>
		<g>
			<circle fill="#58595B" cx="217.9" cy="216.2" r="3.8"/>
		</g>
	</g>
	<g>
		<path fill="#58595B" d="M209.6,228.2l-2-0.1c1.1-18.4,19.8-30.2,27.7-34.5l0.9,1.8C228.6,199.5,210.7,210.8,209.6,228.2z"/>
		<g>
			<circle fill="#58595B" cx="208.6" cy="228" r="3.8"/>
		</g>
		<g>
			<circle fill="#58595B" cx="235.6" cy="194.6" r="3.8"/>
		</g>
	</g>
	<g>
		<path fill="#58595B" d="M259,192.9l-1.1-1.7c5.9-3.9,15.9-2.7,23.9-1.7c1.2,0.1,2.4,0.3,3.5,0.4l-0.2,2c-1.1-0.1-2.3-0.3-3.6-0.4
			C273.9,190.6,264.3,189.4,259,192.9z"/>
		<g>
			<circle fill="#58595B" cx="258.6" cy="192" r="3.8"/>
		</g>
		<g>
			<circle fill="#58595B" cx="285.1" cy="190.9" r="3.8"/>
		</g>
	</g>
	<g>
		<path fill="#58595B" d="M250.2,196.3l-0.9-1.8c14.2-7.5,30.4-14.5,43.3-10l-0.7,1.9C279.8,182.1,264,189,250.2,196.3z"/>
		<g>
			<circle fill="#58595B" cx="292.1" cy="185.5" r="3.8"/>
		</g>
		<g>
			<circle fill="#58595B" cx="250" cy="195.4" r="3.8"/>
		</g>
	</g>
	<g>
		<path fill="#58595B" d="M219.6,203.4l-1.2-1.6c3-2.2,6.7-4.6,10.8-5.4l0.4,2C225.9,199.1,222.5,201.3,219.6,203.4z"/>
		<g>
			<circle fill="#58595B" cx="229.3" cy="197.4" r="3.8"/>
		</g>
		<g>
			<circle fill="#58595B" cx="219.2" cy="202.5" r="3.8"/>
		</g>
	</g>
	<g>
		<path fill="#58595B" d="M153.9,205.7l-0.9-1.8c11.3-5.3,24.1-7.5,36.5-9.6c1.9-0.3,3.7-0.6,5.6-1c1.3-0.2,2.7-0.6,4.1-0.9
			c4-1,8.2-2,12.1-1l-0.5,2c-3.5-0.8-7.4,0.1-11.2,1c-1.4,0.3-2.8,0.7-4.2,0.9c-1.8,0.3-3.7,0.7-5.6,1
			C177.7,198.4,165,200.5,153.9,205.7z"/>
		<g>
			<circle fill="#58595B" cx="211" cy="192.3" r="3.8"/>
		</g>
		<g>
			<circle fill="#58595B" cx="153.7" cy="204.8" r="3.8"/>
		</g>
	</g>
	<g>
		<path fill="#58595B" d="M136.1,217.4l-1.7-1.1c2.4-3.8,5.5-8.1,9.5-10.3l1,1.8C141.3,209.8,138.4,213.8,136.1,217.4z"/>
		<g>
			<circle fill="#58595B" cx="144.2" cy="206.9" r="3.8"/>
		</g>
		<g>
			<circle fill="#58595B" cx="135.4" cy="216.7" r="3.8"/>
		</g>
	</g>
	<g>
		<path fill="#58595B" d="M124.5,234.6c-0.1-0.3-0.3-0.7-0.4-1l1.8-0.9c0.2,0.4,0.3,0.7,0.5,1.1L124.5,234.6z"/>
		<g>
			<circle fill="#58595B" cx="125" cy="233.4" r="3.8"/>
		</g>
		<g>
			<circle fill="#58595B" cx="125.3" cy="234.1" r="3.8"/>
		</g>
	</g>
	<g>
		<path fill="#58595B" d="M169.4,296.7c-7.1-4.4-19.4-13.9-21-27.5l2-0.2c1.5,12.8,13.2,21.8,20.1,26L169.4,296.7z"/>
		<g>
			<circle fill="#58595B" cx="149.5" cy="269.3" r="3.8"/>
		</g>
		<g>
			<circle fill="#58595B" cx="169.8" cy="295.7" r="3.8"/>
		</g>
	</g>
	<g>
		<path fill="#58595B" d="M136.5,303.5l-1-1.8c7.6-4.3,18.7-2.4,27.6-0.9c0.8,0.1,1.6,0.3,2.4,0.4l-0.3,2c-0.8-0.1-1.6-0.3-2.4-0.4
			C154.1,301.3,143.4,299.5,136.5,303.5z"/>
		<g>
			<circle fill="#58595B" cx="136.2" cy="302.5" r="3.8"/>
		</g>
		<g>
			<circle fill="#58595B" cx="165.1" cy="302.1" r="3.8"/>
		</g>
	</g>
	<g>
		<path fill="#58595B" d="M138,276l-1.6-1.3c0.6-0.7,1.2-1.4,1.7-2.1c2.5-3,4.9-5.8,6.5-9.2l1.8,0.9c-1.7,3.6-4.3,6.7-6.8,9.7
			C139.2,274.6,138.6,275.3,138,276z"/>
		<g>
			<circle fill="#58595B" cx="145.5" cy="264" r="3.8"/>
		</g>
		<g>
			<circle fill="#58595B" cx="137.4" cy="275.2" r="3.8"/>
		</g>
	</g>
	<g>
		<path fill="#58595B" d="M178.5,251.5l-1.8-0.8c5.9-13.4,26.7-19.7,39.2-20.7l0.2,2C204,233,184.1,239,178.5,251.5z"/>
		<g>
			<circle fill="#58595B" cx="177.7" cy="251" r="3.8"/>
		</g>
		<g>
			<circle fill="#58595B" cx="215.8" cy="231.1" r="3.8"/>
		</g>
	</g>
	<g>
		<path fill="#58595B" d="M237,244.7c-1.7-0.7-3.4-1.5-5.1-2.2c-5-2.1-10.2-4.3-14.9-7.1l1-1.7c4.6,2.7,9.7,4.9,14.7,7
			c1.7,0.7,3.4,1.4,5.1,2.2L237,244.7z"/>
		<g>
			<circle fill="#58595B" cx="217.7" cy="234.6" r="3.8"/>
		</g>
		<g>
			<circle fill="#58595B" cx="237.2" cy="243.7" r="3.8"/>
		</g>
	</g>
	<g>
		<path fill="#58595B" d="M337.2,249.4l-0.9-1.8c2.1-1.1,5-2.4,7.7-3.7c2.2-1,4.4-2.1,6.3-3l0.9,1.8c-1.9,0.9-4.1,2-6.3,3
			C342.1,247,339.2,248.4,337.2,249.4z"/>
		<g>
			<circle fill="#58595B" cx="336.9" cy="248.4" r="3.8"/>
		</g>
		<g>
			<circle fill="#58595B" cx="350.5" cy="241.9" r="3.8"/>
		</g>
	</g>
	<g>
		<path fill="#58595B" d="M367.1,193.1c-8.9-1-14.8-9.1-19.9-17.7l1.7-1c4.8,8.2,10.3,15.8,18.3,16.7L367.1,193.1z"/>
		<g>
			<circle fill="#58595B" cx="367" cy="192" r="3.8"/>
		</g>
		<g>
			<circle fill="#58595B" cx="348.3" cy="175" r="3.8"/>
		</g>
	</g>
	<g>
		<path fill="#58595B" d="M344.1,165.5c-6.4-6.6-17.3-11.6-29-13.4l0.3-2c12.1,1.9,23.4,7.1,30.1,14L344.1,165.5z"/>
		<g>
			<circle fill="#58595B" cx="344.6" cy="164.7" r="3.8"/>
		</g>
		<g>
			<circle fill="#58595B" cx="315.4" cy="151.1" r="3.8"/>
		</g>
	</g>
	<g>
		<path fill="#58595B" d="M299.5,165.4c-3.6-1.2-7.6-2-11.4-2.8c-5.2-1-10.5-2.1-15.2-4.3l0.9-1.8c4.4,2.1,9.6,3.1,14.7,4.1
			c3.9,0.8,8,1.6,11.7,2.9L299.5,165.4z"/>
		<g>
			<circle fill="#58595B" cx="273.6" cy="157.5" r="3.8"/>
		</g>
		<g>
			<circle fill="#58595B" cx="299.7" cy="164.4" r="3.8"/>
		</g>
	</g>
	<g>
		<path fill="#58595B" d="M319,192.2c-6.4-0.4-11.5-2.4-14.7-5.5l-0.3,0.2c-0.3-0.5-0.6-1.1-0.9-1.6c-0.2-0.3-0.4-0.6-0.6-0.9
			l1.7-1.1c0.2,0.3,0.4,0.6,0.6,0.9c3.6,4.9,11.2,5.9,14.4,6.1L319,192.2z"/>
		<g>
			<circle fill="#58595B" cx="304.7" cy="186.2" r="3.8"/>
		</g>
		<g>
			<circle fill="#58595B" cx="318.9" cy="191.1" r="3.8"/>
		</g>
	</g>
	<g>
		<path fill="#58595B" d="M330.8,189.1l-1.5-1.3c4.9-5.6,10-9.1,14.9-10.5l0.5,1.9C340.1,180.5,335.4,183.8,330.8,189.1z"/>
		<g>
			<circle fill="#58595B" cx="344.3" cy="178.3" r="3.8"/>
		</g>
		<g>
			<circle fill="#58595B" cx="330.1" cy="188.3" r="3.8"/>
		</g>
	</g>
	<g>
		<path fill="#58595B" d="M307.9,146.6c-3.3-4.4-6.6-7.4-13.2-8.8l0.4-2c7.2,1.5,10.8,4.8,14.4,9.5L307.9,146.6z"/>
		<g>
			<circle fill="#58595B" cx="308.6" cy="145.8" r="3.8"/>
		</g>
		<g>
			<circle fill="#58595B" cx="295.1" cy="136.9" r="3.8"/>
		</g>
	</g>
	<g>
		<path fill="#58595B" d="M277.2,150.6c-0.9-7.6-0.4-14.9,0-21.9c0.2-3,0.4-6,0.4-9.1l2,0.1c-0.1,3.1-0.3,6.2-0.4,9.1
			c-0.4,7-0.8,14.1,0,21.6L277.2,150.6z"/>
		<g>
			<circle fill="#58595B" cx="278.6" cy="119.8" r="3.8"/>
		</g>
		<g>
			<circle fill="#58595B" cx="278.2" cy="150.2" r="3.8"/>
		</g>
	</g>
	<g>
		<path fill="#58595B" d="M255.9,153.4l-1.2-1.6c4.6-3.6,9.1-6.2,14.4-8.4l0.8,1.9C264.8,147.3,260.4,149.9,255.9,153.4z"/>
		<g>
			<circle fill="#58595B" cx="269.3" cy="144.4" r="3.8"/>
		</g>
		<g>
			<circle fill="#58595B" cx="255.5" cy="152.5" r="3.8"/>
		</g>
	</g>
	<g>
		<path fill="#58595B" d="M241.2,148.8c-7.3-2.4-11.4-4.8-13-7.6l1.8-1c1.3,2.2,5.3,4.5,11.9,6.7L241.2,148.8z"/>
		<g>
			<circle fill="#58595B" cx="229.2" cy="140.9" r="3.8"/>
		</g>
		<g>
			<circle fill="#58595B" cx="241.3" cy="147.8" r="3.8"/>
		</g>
	</g>
	<g>
		<path fill="#58595B" d="M246.5,181.4c-8.9-6.6-20.5-16.4-17.9-24.6l1.9,0.6c-2.5,7.9,12.3,18.8,17.2,22.4L246.5,181.4z"/>
		<g>
			<circle fill="#58595B" cx="229.5" cy="157.3" r="3.8"/>
		</g>
		<g>
			<circle fill="#58595B" cx="246.9" cy="180.5" r="3.8"/>
		</g>
	</g>
	<g>
		<path fill="#58595B" d="M201.6,195.1l-1.5-1.3l0.7-0.8c4.8-5.4,12.1-13.5,17.3-16.3l1,1.8c-4.8,2.6-12.3,10.9-16.7,15.8
			L201.6,195.1z"/>
		<g>
			<circle fill="#58595B" cx="218.4" cy="177.7" r="3.8"/>
		</g>
		<g>
			<circle fill="#58595B" cx="201" cy="194.3" r="3.8"/>
		</g>
	</g>
	<g>
		<path fill="#58595B" d="M197.1,199.8l-0.9-1.8c8-4,13.2-8.1,16.5-12.8l1.6,1.2C210.8,191.4,205.3,195.6,197.1,199.8z"/>
		<g>
			<circle fill="#58595B" cx="213.4" cy="186" r="3.8"/>
		</g>
		<g>
			<circle fill="#58595B" cx="196.7" cy="198.8" r="3.8"/>
		</g>
	</g>
	<g>
		<path fill="#58595B" d="M117.3,159.2l-1.9-0.6c2.5-7.5,10.4-13.3,16.1-17l1.1,1.7C127.1,146.8,119.5,152.4,117.3,159.2z"/>
		<g>
			<circle fill="#58595B" cx="116.4" cy="158.7" r="3.8"/>
		</g>
		<g>
			<circle fill="#58595B" cx="131.9" cy="142.6" r="3.8"/>
		</g>
	</g>
	<g>
		<path fill="#58595B" d="M146,172.4c-2-4.4-4.9-12.4-1.2-16.9l1.6,1.3c-3.1,3.8,0,11.6,1.4,14.8L146,172.4z"/>
		<g>
			<circle fill="#58595B" cx="145.5" cy="156.2" r="3.8"/>
		</g>
		<g>
			<circle fill="#58595B" cx="146.9" cy="171.7" r="3.8"/>
		</g>
	</g>
	<g>
		<path fill="#58595B" d="M257.9,305.6l-1.8-0.9c2-4.2,5.9-7.3,9.8-10.1l1.2,1.6C263.6,298.7,259.8,301.7,257.9,305.6z"/>
		<g>
			<circle fill="#58595B" cx="257.1" cy="305" r="3.8"/>
		</g>
		<g>
			<circle fill="#58595B" cx="266.3" cy="295.6" r="3.8"/>
		</g>
	</g>
	<g>
		<path fill="#58595B" d="M271.5,301.9l-1.8-0.9c2.9-5.5,2.7-13.4,2.4-16.6l2-0.1C274.4,287.6,274.7,296,271.5,301.9z"/>
		<g>
			<circle fill="#58595B" cx="270.7" cy="301.3" r="3.8"/>
		</g>
		<g>
			<circle fill="#58595B" cx="273.2" cy="284.5" r="3.8"/>
		</g>
	</g>
	<g>
		<path fill="#58595B" d="M280.5,289.1l-2-0.2c0.2-2.3,0.7-5.1,1.3-7.9c0.4-2.1,0.8-4.2,1.1-6.1l2,0.3c-0.3,2-0.7,4.1-1.1,6.2
			C281.2,284.1,280.7,286.9,280.5,289.1z"/>
		<g>
			<circle fill="#58595B" cx="279.5" cy="288.8" r="3.8"/>
		</g>
		<g>
			<circle fill="#58595B" cx="281.7" cy="275.2" r="3.8"/>
		</g>
	</g>
	<g>
		<path fill="#58595B" d="M291.5,278.1l-2-0.1c0.2-2.2,0.5-4.7,0.9-7.2c0.2-1.2,0.3-2.3,0.5-3.4l2,0.3c-0.1,1.1-0.3,2.3-0.5,3.4
			C292,273.4,291.7,276,291.5,278.1z"/>
		<g>
			<circle fill="#58595B" cx="290.5" cy="277.8" r="3.8"/>
		</g>
		<g>
			<circle fill="#58595B" cx="291.8" cy="267.6" r="3.8"/>
		</g>
	</g>
	<g>
		<path fill="#58595B" d="M301.5,269.6l-2-0.1c0.1-0.9,0.2-2,0.4-3.1l2,0.3C301.7,267.8,301.5,268.7,301.5,269.6z"/>
		<g>
			<circle fill="#58595B" cx="300.5" cy="269.4" r="3.8"/>
		</g>
		<g>
			<circle fill="#58595B" cx="300.9" cy="266.7" r="3.8"/>
		</g>
	</g>
	<g>
		<g>
			<circle fill="#58595B" cx="307.8" cy="267" r="3.8"/>
		</g>
		<g>
			<circle fill="#58595B" cx="307.3" cy="268" r="3.8"/>
		</g>
	</g>
	<g>
		<path fill="#58595B" d="M277.4,305.7l-0.8-1.8c17.8-7.8,33-22.8,42.8-42.2l1.8,0.9C311.2,282.4,295.6,297.7,277.4,305.7z"/>
		<g>
			<circle fill="#58595B" cx="277.1" cy="304.7" r="3.8"/>
		</g>
		<g>
			<circle fill="#58595B" cx="320.1" cy="262.2" r="3.8"/>
		</g>
	</g>
	<g>
		<path fill="#58595B" d="M293.5,304.4l-0.7-1.9c13.9-4.7,25.9-19.8,35.6-31.9c1-1.3,2-2.6,3-3.8l1.6,1.3c-1,1.2-2,2.5-3,3.8
			C320.1,284.2,307.9,299.5,293.5,304.4z"/>
		<g>
			<circle fill="#58595B" cx="293.3" cy="303.4" r="3.8"/>
		</g>
		<g>
			<circle fill="#58595B" cx="332.1" cy="267.6" r="3.8"/>
		</g>
	</g>
	<g>
		<path fill="#58595B" d="M306.1,303.1l-0.8-1.8c14.3-6.5,25.4-18.8,36.1-30.6c2.2-2.5,4.5-5,6.8-7.4l1.5,1.4
			c-2.3,2.4-4.5,4.9-6.8,7.4C332,284,320.8,296.4,306.1,303.1z"/>
		<g>
			<circle fill="#58595B" cx="305.9" cy="302.1" r="3.8"/>
		</g>
		<g>
			<circle fill="#58595B" cx="348.8" cy="264.1" r="3.8"/>
		</g>
	</g>
	<g>
		<path fill="#58595B" d="M323.2,303.2l-0.6-1.9c7.9-2.6,19.3-15.6,27.6-25.1c1.7-2,3.4-3.8,4.8-5.4l1.5,1.4c-1.4,1.6-3,3.4-4.8,5.4
			C343.1,287.2,331.5,300.4,323.2,303.2z"/>
		<g>
			<circle fill="#58595B" cx="323" cy="302.2" r="3.8"/>
		</g>
		<g>
			<circle fill="#58595B" cx="355.6" cy="271.7" r="3.8"/>
		</g>
	</g>
	<g>
		<path fill="#58595B" d="M341.7,299.3l-0.6-1.9c5.8-1.7,13.7-9.7,19.4-15.5c0.9-1,1.8-1.9,2.7-2.7l1.4,1.4
			c-0.8,0.8-1.7,1.7-2.6,2.7C356.1,289.2,348.1,297.4,341.7,299.3z"/>
		<g>
			<circle fill="#58595B" cx="341.6" cy="298.2" r="3.8"/>
		</g>
		<g>
			<circle fill="#58595B" cx="363.9" cy="280" r="3.8"/>
		</g>
	</g>
	<g>
		<path fill="#58595B" d="M349.6,303.2l-1-1.7c0.5-0.3,1.1-0.7,1.6-1c0.8-0.5,1.6-1,2.2-1.3c8.7-4.8,16.9-12.4,23.7-19.1l1.4,1.4
			c-6.9,6.8-15.2,14.5-24.1,19.4c-0.6,0.3-1.3,0.8-2.1,1.3C350.7,302.5,350.1,302.9,349.6,303.2z"/>
		<g>
			<circle fill="#58595B" cx="349.2" cy="302.2" r="3.8"/>
		</g>
		<g>
			<circle fill="#58595B" cx="376.6" cy="280.9" r="3.8"/>
		</g>
	</g>
	<g>
		<path fill="#58595B" d="M360.4,307.1l-0.9-1.8c5.9-3,10.9-7,16.2-11.2c1.1-0.9,2.3-1.8,3.4-2.7l1.2,1.6c-1.1,0.9-2.3,1.8-3.4,2.7
			C371.9,299.8,366.5,304.1,360.4,307.1z"/>
		<g>
			<circle fill="#58595B" cx="360.1" cy="306.1" r="3.8"/>
		</g>
		<g>
			<circle fill="#58595B" cx="379.6" cy="292.4" r="3.8"/>
		</g>
	</g>
	<g>
		<path fill="#58595B" d="M374.4,308.3l-1.2-1.7c2.5-1.8,5-3.7,7.4-5.5c2.5-1.9,5.1-3.9,7.7-5.7l1.2,1.7c-2.6,1.8-5.2,3.8-7.6,5.6
			C379.4,304.6,376.9,306.5,374.4,308.3z"/>
		<g>
			<circle fill="#58595B" cx="373.9" cy="307.3" r="3.8"/>
		</g>
		<g>
			<circle fill="#58595B" cx="388.8" cy="296.4" r="3.8"/>
		</g>
	</g>
	<g>
		<path fill="#58595B" d="M386.4,309.2l-0.8-1.8c2.1-0.9,5-2.3,7.8-3.8l0.9,1.8C391.5,306.8,388.6,308.2,386.4,309.2z"/>
		<g>
			<circle fill="#58595B" cx="386.2" cy="308.1" r="3.8"/>
		</g>
		<g>
			<circle fill="#58595B" cx="393.6" cy="304.5" r="3.8"/>
		</g>
	</g>
	<g>
		<path fill="#58595B" d="M393.1,310.7l-0.8-1.8c1.4-0.6,2.8-1.3,4.2-2c1.4-0.7,2.8-1.4,4.3-2l0.8,1.8c-1.4,0.6-2.9,1.3-4.2,2
			C396,309.4,394.6,310.1,393.1,310.7z"/>
		<g>
			<circle fill="#58595B" cx="392.9" cy="309.7" r="3.8"/>
		</g>
		<g>
			<circle fill="#58595B" cx="401.1" cy="305.8" r="3.8"/>
		</g>
	</g>
	<g>
		<path fill="#58595B" d="M400.5,314.3l-1-1.8c2.3-1.3,4.7-2.2,7.2-2.7l0.4,2C404.8,312.3,402.6,313.1,400.5,314.3z"/>
		<g>
			<circle fill="#58595B" cx="400.2" cy="313.3" r="3.8"/>
		</g>
		<g>
			<circle fill="#58595B" cx="406.8" cy="310.8" r="3.8"/>
		</g>
	</g>
	<g>
		
			<rect x="404.4" y="322.6" transform="matrix(0.2881 0.9576 -0.9576 0.2881 598.3561 -158.0114)" fill="#58595B" width="2" height="1.6"/>
		<g>
			<circle fill="#58595B" cx="404.9" cy="323.6" r="3.8"/>
		</g>
		<g>
			<circle fill="#58595B" cx="406" cy="323.2" r="3.8"/>
		</g>
	</g>
	<g>
		<path fill="#58595B" d="M316,379.2c-15,0-24.4-3.7-34-19.2c-2.7-4.3-5.4-9-7.8-13.8l1.8-0.9c2.3,4.8,5,9.4,7.7,13.7
			c10.1,16.4,19.6,18.9,37,18.2l0.1,2C319.1,379.2,317.5,379.2,316,379.2z"/>
		<g>
			<circle fill="#58595B" cx="275.2" cy="345.9" r="3.8"/>
		</g>
		<g>
			<circle fill="#58595B" cx="320.5" cy="378.1" r="3.8"/>
		</g>
	</g>
	<g>
		<path fill="#58595B" d="M325.3,375.9l-0.4-2c3.2-0.6,7.9-1.1,11.6-1.6c1.8-0.2,3.3-0.4,4.2-0.5c14.9-2.2,25.7-1.5,38.4,0.3l-0.3,2
			c-12.5-1.8-23.2-2.5-37.8-0.3c-0.9,0.1-2.5,0.3-4.3,0.5C333.3,374.8,328.5,375.3,325.3,375.9z"/>
		<g>
			<circle fill="#58595B" cx="325.4" cy="374.9" r="3.8"/>
		</g>
		<g>
			<circle fill="#58595B" cx="378.9" cy="373.2" r="3.8"/>
		</g>
	</g>
	<g>
		<path fill="#58595B" d="M341.8,366.3c-20.6-0.1-55.5-3-57.5-21l2-0.2c1.9,17,39.4,19.1,55.5,19.2L341.8,366.3z"/>
		<g>
			<circle fill="#58595B" cx="285.4" cy="345.4" r="3.8"/>
		</g>
		<g>
			<circle fill="#58595B" cx="341.7" cy="365.2" r="3.8"/>
		</g>
	</g>
	<g>
		<path fill="#58595B" d="M389.3,379c-8.2-6.1-18.2-10.3-30.5-12.9c-2-0.4-4.1-0.7-6.1-1c-3.7-0.5-7.6-1.1-11.2-2.5l0.7-1.9
			c3.4,1.3,7.1,1.8,10.7,2.3c2.1,0.3,4.2,0.6,6.2,1c12.6,2.7,22.8,7,31.3,13.3L389.3,379z"/>
		<g>
			<circle fill="#58595B" cx="342.1" cy="361.7" r="3.8"/>
		</g>
		<g>
			<circle fill="#58595B" cx="389.8" cy="378.1" r="3.8"/>
		</g>
	</g>
	<g>
		<path fill="#58595B" d="M388.5,373.1c-16.9-12.5-34.4-13.8-53-15.1c-0.8-0.1-1.8-0.1-2.9-0.2c-9.4-0.5-26.9-1.4-30.6-10.7l1.9-0.7
			c3.2,8.1,20.5,9,28.8,9.4c1.1,0.1,2.1,0.1,2.9,0.2c18.9,1.3,36.7,2.6,54.1,15.5L388.5,373.1z"/>
		<g>
			<circle fill="#58595B" cx="303.1" cy="347" r="3.8"/>
		</g>
		<g>
			<circle fill="#58595B" cx="388.9" cy="372.2" r="3.8"/>
		</g>
	</g>
	<g>
		<path fill="#58595B" d="M400,370.6c-8.1-10.3-18.3-15-35-16.4c-2.7-0.2-5.7-0.3-8.9-0.4c-12.1-0.4-27.1-0.9-35.9-8.8l1.3-1.5
			c8.2,7.4,22.9,7.9,34.6,8.3c3.2,0.1,6.3,0.2,9,0.4c17.4,1.4,28,6.4,36.5,17.2L400,370.6z"/>
		<g>
			<circle fill="#58595B" cx="321" cy="344.3" r="3.8"/>
		</g>
		<g>
			<circle fill="#58595B" cx="400.6" cy="369.8" r="3.8"/>
		</g>
	</g>
	<g>
		<path fill="#58595B" d="M406.8,361.6c-4.5-1.7-9-3.7-13.3-5.6c-10.6-4.7-21.7-9.5-33.5-10.7l0.2-2c12.2,1.2,23.4,6.1,34.1,10.8
			c4.3,1.9,8.8,3.9,13.2,5.5L406.8,361.6z"/>
		<g>
			<circle fill="#58595B" cx="360.2" cy="344.4" r="3.8"/>
		</g>
		<g>
			<circle fill="#58595B" cx="407" cy="360.5" r="3.8"/>
		</g>
	</g>
	<g>
		<path fill="#58595B" d="M288.2,341.3c-8.6,0-16.1-2.2-24.1-4.5l0.6-1.9l0,0c9.1,2.7,16.9,5,26.4,4.4l0.1,2
			C290.2,341.3,289.2,341.3,288.2,341.3z"/>
		<g>
			<circle fill="#58595B" cx="264.6" cy="335.9" r="3.8"/>
		</g>
		<g>
			<circle fill="#58595B" cx="291" cy="340.2" r="3.8"/>
		</g>
	</g>
	<g>
		<path fill="#58595B" d="M288.7,335.9c-9,0-18-0.9-24-4.4l1-1.7c9,5.2,26.7,4.2,38.3,3.5c1.4-0.1,2.7-0.2,4-0.2l0.1,2
			c-1.2,0.1-2.6,0.1-3.9,0.2C299.5,335.6,294.1,335.9,288.7,335.9z"/>
		<g>
			<circle fill="#58595B" cx="265.5" cy="330.8" r="3.8"/>
		</g>
		<g>
			<circle fill="#58595B" cx="307.9" cy="334.2" r="3.8"/>
		</g>
	</g>
	<g>
		<path fill="#58595B" d="M300.4,329.8c-8.4-0.4-36.3-2.2-39.6-8.8l1.8-0.9c2.1,4.1,21.1,6.9,37.9,7.7L300.4,329.8z"/>
		<g>
			<circle fill="#58595B" cx="261.8" cy="320.8" r="3.8"/>
		</g>
		<g>
			<circle fill="#58595B" cx="300.3" cy="328.7" r="3.8"/>
		</g>
	</g>
	<g>
		<path fill="#58595B" d="M310.5,323.2c-27.5,0-42.9-2.4-45.8-7.1l1.7-1.1c2.4,3.9,18.5,6.1,44.1,6.1c0.3,0,0.6,0,0.8,0l0,2
			C311.1,323.2,310.8,323.2,310.5,323.2z"/>
		<g>
			<circle fill="#58595B" cx="265.8" cy="315.8" r="3.8"/>
		</g>
		<g>
			<circle fill="#58595B" cx="311.2" cy="322.1" r="3.8"/>
		</g>
	</g>
	<g>
		<path fill="#58595B" d="M328.3,320.3c-3.9-0.3-8.2-0.4-12.8-0.5c-13.1-0.4-27.9-0.8-38.1-5.3l0.8-1.8c9.9,4.3,24.5,4.7,37.4,5.1
			c4.6,0.1,8.9,0.3,12.8,0.5L328.3,320.3z"/>
		<g>
			<circle fill="#58595B" cx="278" cy="313.6" r="3.8"/>
		</g>
		<g>
			<circle fill="#58595B" cx="328.2" cy="319.3" r="3.8"/>
		</g>
	</g>
	<g>
		<path fill="#58595B" d="M371.8,343.1c-11.8-11.6-36-28-54-25.7l-0.2-2c8.3-1,18.7,1.6,30.1,7.6c9,4.8,18.3,11.6,25.6,18.6
			L371.8,343.1z"/>
		<g>
			<circle fill="#58595B" cx="317.9" cy="316.4" r="3.8"/>
		</g>
		<g>
			<circle fill="#58595B" cx="372.3" cy="342.3" r="3.8"/>
		</g>
	</g>
	<g>
		<path fill="#58595B" d="M390.4,348.1c-6.6-6.7-29.7-28.7-51.6-30l0.1-2c22.6,1.3,46.2,23.8,52.9,30.6L390.4,348.1z"/>
		<g>
			<circle fill="#58595B" cx="339.1" cy="317.1" r="3.8"/>
		</g>
		<g>
			<circle fill="#58595B" cx="391" cy="347.3" r="3.8"/>
		</g>
	</g>
	<g>
		<path fill="#58595B" d="M403.7,352.7c-4.8-18.2-23.3-28.6-36.8-34.9l0.8-1.8c13.9,6.4,32.9,17.2,37.9,36.2L403.7,352.7z"/>
		<g>
			<circle fill="#58595B" cx="367.5" cy="317" r="3.8"/>
		</g>
		<g>
			<circle fill="#58595B" cx="404.6" cy="352.2" r="3.8"/>
		</g>
	</g>
	<g>
		<path fill="#58595B" d="M414.7,351.8c-3.1-13.1-9.9-23.3-20.3-30.3l1.1-1.7c10.8,7.3,17.9,17.9,21.1,31.5L414.7,351.8z"/>
		<g>
			<circle fill="#58595B" cx="395.1" cy="320.8" r="3.8"/>
		</g>
		<g>
			<circle fill="#58595B" cx="415.6" cy="351.4" r="3.8"/>
		</g>
	</g>
	<g>
		<path fill="#58595B" d="M415.7,347.2c-4.2-8.5-8.3-15.1-12.7-20.1l1.5-1.3c4.5,5.1,8.8,11.8,13,20.6L415.7,347.2z"/>
		<g>
			<circle fill="#58595B" cx="403.8" cy="326.6" r="3.8"/>
		</g>
		<g>
			<circle fill="#58595B" cx="416.5" cy="346.6" r="3.8"/>
		</g>
	</g>
	<g>
		<path fill="#58595B" d="M424.7,340.9c-1-3.8-2.6-8.6-5.4-11.9l1.5-1.3c3.1,3.6,4.7,8.6,5.9,12.7L424.7,340.9z"/>
		<g>
			<circle fill="#58595B" cx="420.2" cy="328.6" r="3.8"/>
		</g>
		<g>
			<circle fill="#58595B" cx="425.6" cy="340.5" r="3.8"/>
		</g>
	</g>
	<g>
		<path fill="#58595B" d="M431.1,335l-2-0.5c0.2-1,0.4-2,0.5-3l2,0.2C431.5,332.8,431.4,333.9,431.1,335z"/>
		<g>
			<circle fill="#58595B" cx="430.6" cy="331.9" r="3.8"/>
		</g>
		<g>
			<circle fill="#58595B" cx="430.1" cy="334.6" r="3.8"/>
		</g>
	</g>
</g>
</svg>
