<?xml version="1.0" encoding="utf-8"?>
<!-- Generator: Adobe Illustrator 19.0.1, SVG Export Plug-In . SVG Version: 6.00 Build 0)  -->
<!DOCTYPE svg PUBLIC "-//W3C//DTD SVG 1.1//EN" "http://www.w3.org/Graphics/SVG/1.1/DTD/svg11.dtd">
<svg version="1.1" id="Layer_1" xmlns="http://www.w3.org/2000/svg" xmlns:xlink="http://www.w3.org/1999/xlink" x="0px" y="0px"
	 viewBox="0 0 199.9 183.8" enable-background="new 0 0 199.9 183.8" xml:space="preserve">
<g>
	<polygon fill="#587767" points="65.1,126.1 100.6,183.8 118,145.3 	"/>
	<polygon fill="#587767" points="99.8,180.3 102.8,181.4 110,172.7 112.9,160 115.9,147.3 94,147.3 	"/>
	<polygon fill="#777F7B" points="186.9,0 187.8,115.6 166.5,25.1 	"/>
	<polygon fill="#B3B3B3" points="187.8,115.6 140.2,153.3 166.5,25.1 	"/>
	<polygon fill="#5A6A62" points="166.5,25.1 152.3,94.3 69.8,37.6 	"/>
	<polygon fill="#5A6A62" points="65.1,126.1 69.8,37.6 0,61.5 	"/>
	<polygon fill="#B3B3B3" points="69.8,37.6 67.5,80.7 152.3,94.3 	"/>
	<polygon fill="#5A6A62" points="67.5,80.7 140.2,153.3 152.3,94.3 	"/>
	<polygon fill="#777F7B" points="65.1,126.1 67.5,80.7 140.2,153.3 	"/>
	<polygon fill="#B3B3B3" points="139.3,151.7 163.8,140.7 168.6,133.8 187.6,118 173.2,102.7 	"/>
	<polygon fill="#777F7B" points="187.8,115.6 191.2,101.1 197.7,81 199.9,70.3 192.6,72.2 194.1,59.9 193.8,38.8 192.5,28 
		191.2,22.1 187.6,13.8 180.1,16.3 182.2,91.8 	"/>
</g>
</svg>
