<?xml version="1.0" encoding="utf-8"?>
<!-- Generator: Adobe Illustrator 19.0.1, SVG Export Plug-In . SVG Version: 6.00 Build 0)  -->
<!DOCTYPE svg PUBLIC "-//W3C//DTD SVG 1.1//EN" "http://www.w3.org/Graphics/SVG/1.1/DTD/svg11.dtd">
<svg version="1.1" id="Layer_1" xmlns="http://www.w3.org/2000/svg" xmlns:xlink="http://www.w3.org/1999/xlink" x="0px" y="0px"
	 viewBox="0 0 113 113.2" enable-background="new 0 0 113 113.2" xml:space="preserve">
<g>
	<polygon fill="#587767" points="5.3,32.6 25.9,63 37.2,29.5 	"/>
	<polygon fill="#3B9E6A" points="25.9,63 44.5,86 65.7,36.3 	"/>
	<polygon fill="#BCE555" points="37.2,29.5 65.7,36.3 25.9,63 	"/>
	<polygon fill="#3B9E6A" points="37.2,29.5 65.6,0 65.7,36.3 	"/>
	<polygon fill="#BCE555" points="65.6,0 96.3,30.4 65.7,36.3 	"/>
	<polygon fill="#3B9E6A" points="65.7,36.3 82.1,50.3 96.3,30.4 	"/>
	<polygon fill="#BCE555" points="82.1,50.3 113,57.6 96.3,30.4 	"/>
	<polygon fill="#587767" points="65.7,36.3 51.6,69.2 82.1,50.3 	"/>
	<polygon fill="#3B9E6A" points="82.1,50.3 88,71.8 113,57.6 	"/>
	<polygon fill="#BCE555" points="51.6,69.2 88,71.8 82.1,50.3 	"/>
	<polygon fill="#56E281" points="44.5,86 55.8,88.3 49.6,74 	"/>
	<polygon fill="#3B9E6A" points="55.8,88.3 60.1,108.1 44.5,86 	"/>
	<polygon fill="#56E281" points="44.5,86 49.3,113.2 60.1,108.1 	"/>
	<polygon fill="#3B9E6A" points="25.9,63 32,77.6 44.5,86 	"/>
	<polygon fill="#56E281" points="32,77.6 46.5,97.5 44.5,86 	"/>
	<polygon fill="#587767" points="5.3,31.5 0,33.8 0.4,35.6 3.3,38.9 9,43.5 10.8,47.4 9.7,48.4 10.2,49.5 12.1,51.7 15,53.5 
		19.6,58 24.5,63 26.6,57 16.7,44.1 	"/>
	<polygon fill="#BCE555" points="57.1,69 60.2,69.3 65.1,70.8 69.4,73 74.1,72.2 87.1,69.8 84.2,66 	"/>
	<polygon fill="#3B9E6A" points="88,70.4 90,71.2 94.4,70.2 97.4,69 102.2,67.8 104.6,65 109,61.6 110.5,57.7 94.2,59.6 	"/>
</g>
</svg>
