<?xml version="1.0" encoding="utf-8"?>
<!-- Generator: Adobe Illustrator 19.0.1, SVG Export Plug-In . SVG Version: 6.00 Build 0)  -->
<!DOCTYPE svg PUBLIC "-//W3C//DTD SVG 1.1//EN" "http://www.w3.org/Graphics/SVG/1.1/DTD/svg11.dtd">
<svg version="1.1" id="Layer_1" xmlns="http://www.w3.org/2000/svg" xmlns:xlink="http://www.w3.org/1999/xlink" x="0px" y="0px"
	 viewBox="0 0 218.1 221.8" enable-background="new 0 0 218.1 221.8" xml:space="preserve">
<g>
	<polygon fill="#D89545" points="10.2,98.7 79.7,12.4 37.5,117.3 	"/>
	<polygon fill="#FB8A59" points="0,0 79.7,12.4 10.2,98.7 	"/>
	<polygon fill="#F2AB4C" points="79.7,12.4 143.5,55.8 37.5,117.3 	"/>
	<polygon fill="#FB8A59" points="37.5,117.3 147.7,121.1 143.5,55.8 	"/>
	<polygon fill="#D89545" points="143.5,55.8 191.5,120.6 147.7,121.1 	"/>
	<polygon fill="#F2AB4C" points="37.5,117.3 78.1,167.1 147.7,121.1 	"/>
	<polygon fill="#FB8A59" points="147.7,121.1 201.8,192.8 204.8,143.9 	"/>
	<polygon fill="#F2AB4C" points="147.7,121.1 191.5,120.6 204.8,143.9 	"/>
	<polygon fill="#FB8A59" points="204.8,143.9 218.1,172.8 201.8,192.8 	"/>
	<polygon fill="#F2AB4C" points="78.1,167.1 124.9,202.7 69.3,221.8 	"/>
	<polygon fill="#FB8A59" points="147.7,121.1 124.9,202.7 78.1,167.1 	"/>
	<polygon fill="#D89545" points="124.9,202.7 201.8,192.8 147.7,121.1 	"/>
	<polygon fill="#D89545" points="143.5,51.7 152.3,62.2 156.6,66 160.1,74.4 163.2,77.7 169.2,82.4 175.4,90.2 183.1,102.8 
		188.1,114.4 191.5,120.6 153.2,116.9 	"/>
	<polygon fill="#F2AB4C" points="144.1,53.6 135.3,46.3 128.6,43.5 125.5,40.7 114.5,34.5 116.9,32.4 108.7,29.5 100,24 95,21.3 
		90.5,17.8 85.8,24 97.1,40.1 128.6,55.5 	"/>
	<polygon fill="#FB8A59" points="79.7,12.4 68.7,7.4 63.4,9.8 56.9,6.5 49.8,5.2 42.2,4.4 31.2,3.7 25.9,1.8 17.2,1.8 6.5,0.3 
		7,7.2 51.7,21.1 	"/>
</g>
</svg>
