<?xml version="1.0" encoding="utf-8"?>
<!-- Generator: Adobe Illustrator 19.0.1, SVG Export Plug-In . SVG Version: 6.00 Build 0)  -->
<!DOCTYPE svg PUBLIC "-//W3C//DTD SVG 1.1//EN" "http://www.w3.org/Graphics/SVG/1.1/DTD/svg11.dtd">
<svg version="1.1" id="Layer_1" xmlns="http://www.w3.org/2000/svg" xmlns:xlink="http://www.w3.org/1999/xlink" x="0px" y="0px"
	 viewBox="0 0 282.2 211.8" enable-background="new 0 0 282.2 211.8" xml:space="preserve">
<polygon fill="#745F87" points="0,143.9 63.7,152.2 28.8,118.8 "/>
<polygon fill="#A0528C" points="63.7,152.2 88.6,205.5 21.6,171 "/>
<polygon fill="#745F87" points="63.7,152.2 21.6,171 6.8,144.5 "/>
<polygon fill="#8B7B9B" points="28.8,118.8 73.7,42.2 144,92.2 "/>
<polygon fill="#A0528C" points="28.8,118.8 63.7,152.2 144,92.2 "/>
<polygon fill="#745F87" points="88.6,205.5 143.2,200.5 128,143.9 "/>
<polygon fill="#8B7B9B" points="63.7,152.2 88.6,205.5 128,143.9 "/>
<polygon fill="#745F87" points="63.7,152.2 144,92.2 128,143.9 "/>
<polygon fill="#745F87" points="73.7,42.2 144,92.2 231.2,0 "/>
<polygon fill="#A0528C" points="128,143.9 210.9,193.9 143.2,200.5 "/>
<polygon fill="#8B7B9B" points="144,92.2 210.9,193.9 128,143.9 "/>
<polygon fill="#745F87" points="144,92.2 271.2,131.3 210.9,193.9 "/>
<polygon fill="#A0528C" points="144,92.2 186.6,46.8 216.8,114.6 "/>
<polygon fill="#A0528C" points="216.8,114.6 231.2,0 271.2,131.3 "/>
<polygon fill="#8B7B9B" points="186.6,46.8 231.2,0 216.8,114.6 "/>
<polygon fill="#594D6B" points="231.2,0 282.2,62.6 271.2,131.3 "/>
<polygon fill="#745F87" points="4.7,143.9 6.8,149.4 8.8,154.8 12.4,160 19.8,169.2 28.8,160 16.5,150.7 "/>
<polygon fill="#A0528C" points="21,169.2 16.8,173.7 16.5,176.7 18.9,181.1 24.8,185.9 29.6,188.9 36.4,191.4 46.8,196.1 
	51.5,196.1 60.6,199.5 89.5,206.5 63.7,175.9 "/>
<polyline fill="#745F87" points="88.6,205.5 89.2,209.7 90.7,211.8 101.4,210.4 143.2,200.5 128.2,185.9 88.6,205.5 "/>
</svg>
